<?xml version="1.0" encoding="UTF-8"?> <svg xmlns="http://www.w3.org/2000/svg" width="454.28" height="418.33" viewBox="0 0 454.28 418.33"><title>ftso-logo</title><path d="M75.11,354.58H238V459.16H75.11a52.29,52.29,0,0,1,0-104.58Z" transform="translate(-22.86 -40.84)" fill="#f17ea2"></path><path d="M238,145.42V250H75.11a52.29,52.29,0,0,1,0-104.58Z" transform="translate(-22.86 -40.84)" fill="#60c7d5"></path><path d="M477.14,302.25a52.27,52.27,0,0,1-52.33,52.33H238V250H424.81A52.3,52.3,0,0,1,477.14,302.25Z" transform="translate(-22.86 -40.84)" fill="#ef467b"></path><path d="M424.81,145.42H238V40.84H424.81a52.29,52.29,0,1,1,0,104.58Z" transform="translate(-22.86 -40.84)" fill="#7661a9"></path></svg> 