<?xml version="1.0" encoding="utf-8"?>
<!-- Generator: Adobe Illustrator 25.1.0, SVG Export Plug-In . SVG Version: 6.00 Build 0)  -->
<svg version="1.1" id="Layer_1" xmlns="http://www.w3.org/2000/svg" xmlns:xlink="http://www.w3.org/1999/xlink" x="0px" y="0px"
	 viewBox="0 0 1176.8 260.2" style="enable-background:new 0 0 1176.8 260.2;" xml:space="preserve">
<style type="text/css">
	.st0{fill:#363636;}
	.st1{fill:#F17EA2;}
	.st2{fill:#60C7D5;}
	.st3{fill:#EF467B;}
	.st4{fill:#7661A9;}
</style>
<path class="st0" d="M523,96h-89.7v25.6h82.9v24.2h-82.9v44h-30.2V70.4H523V96z"/>
<path class="st0" d="M733.4,70.4v25.9h-51.5v93.5h-30V96.3h-51.5V70.4H733.4z"/>
<path class="st0" d="M812.7,153h29.2v4.6c0,7,2.6,9.6,9.5,9.6h60.5c7,0,9.5-2.6,9.5-9.6v-5.3c0-7-2.2-8.9-9.5-9.6l-72-4.8
	c-17.9-1.4-25.6-8.4-25.6-25.6V96c0-17.7,8-25.6,25.6-25.6h83.7c17.6,0,25.6,7.8,25.6,25.6v9.2h-29.1v-2.6c0-7-2.6-9.6-9.5-9.6
	h-56.5c-7,0-9.5,2.6-9.5,9.6v2.2c0,7,2.2,9,9.5,9.5l72,4.8c17.9,1.2,25.6,8,25.6,25.6v19.4c0,17.7-8,25.6-25.6,25.6h-87.9
	c-17.6,0-25.6-7.8-25.6-25.6V153z"/>
<path class="st0" d="M1067.7,189.8c-22.5,0-33.1-10.4-33.1-33.1v-53.2c0-22.7,10.6-33.1,33.1-33.1h76.1c22.5,0,33.1,10.4,33.1,33.1
	v53.2c0,22.7-10.6,33.1-33.1,33.1H1067.7z M1132.8,164.9c10.4,0,14-3.8,14-14v-41.6c0-10.2-3.6-14-14-14h-54.2c-10.2,0-14,3.8-14,14
	v41.6c0,10.2,3.8,14,14,14L1132.8,164.9z"/>
<path class="st1" d="M32.5,195.2h101.3v65.1H32.5c-18,0-32.5-14.6-32.5-32.5S14.5,195.2,32.5,195.2L32.5,195.2z"/>
<path class="st2" d="M133.8,65.1v65H32.5c-17.9-0.8-31.9-15.9-31.1-33.9c0.7-16.9,14.2-30.4,31.1-31.1H133.8z"/>
<path class="st3" d="M282.6,162.6c0,17.9-14.5,32.5-32.4,32.6c0,0-0.1,0-0.1,0H133.8v-65.1H250C268,130.1,282.5,144.7,282.6,162.6z"
	/>
<path class="st4" d="M250,65.1H133.8V0H250c18,0,32.5,14.6,32.5,32.5S268,65.1,250,65.1L250,65.1z"/>
</svg>
