<svg xmlns="http://www.w3.org/2000/svg" viewBox="0 0 971.51 424.71"><path d="M278.08,321.27h-9.82c-2.29,0-4-1.29-5-3.88L221.42,215.7h-165L14.62,317.39a5,5,0,0,1-5.25,3.88H0L133,0H145.1ZM217.3,206.11,143.73,27.19q-2.52-6.17-4.8-13.71a95.29,95.29,0,0,1-4.8,13.71L60.55,206.11Z"/><path d="M484.19,96l-96.88,225.3H377.25L280.37,96h8.91a5,5,0,0,1,3.66,1.37,7.15,7.15,0,0,1,1.82,2.74L378.4,295a52,52,0,0,1,2.28,6.52q.92,3.32,1.6,6.51.92-3.19,1.83-6.51a50.43,50.43,0,0,1,2.28-6.52L470,100.08a9.21,9.21,0,0,1,2.29-3A5.16,5.16,0,0,1,475.74,96Z"/><path d="M516.43,313.28a10.31,10.31,0,0,1,2.91-7.39,9.63,9.63,0,0,1,7.25-3.05A10.41,10.41,0,0,1,537,313.28a9.61,9.61,0,0,1-3,7.25,10.29,10.29,0,0,1-7.38,2.91,9.94,9.94,0,0,1-10.16-10.16Z"/><path d="M591.75,128q16.9-17.35,35.42-26.51t42.27-9.14q17.59,0,30.62,5.6A55.93,55.93,0,0,1,721.65,114a68.47,68.47,0,0,1,12.68,25.48,126.91,126.91,0,0,1,4.12,33.7V321.27h-4.12c-3.05,0-4.79-1.6-5.25-4.8l-2.29-33.36a245,245,0,0,1-18.73,17.37,108.59,108.59,0,0,1-19.88,13.14A103.94,103.94,0,0,1,665.55,322a112.7,112.7,0,0,1-26.73,3,72.71,72.71,0,0,1-21.25-3.2,55.46,55.46,0,0,1-19-10.06A49.93,49.93,0,0,1,585,294q-5.14-10.86-5.14-26.17a45.54,45.54,0,0,1,8.57-27q8.56-12.1,26.62-20.91T660.76,206q27.65-5.13,65.8-6.05V173.2q0-33.81-14.62-52.55t-43.41-18.74q-17.14,0-29.48,4.91a92.81,92.81,0,0,0-20.57,11,117.2,117.2,0,0,0-13.13,11q-4.92,4.92-7.43,4.91a5.09,5.09,0,0,1-4.11-2.51Zm134.81,80.43q-69,2.3-102,17.14t-33,41.82q0,12.57,4.23,21.7a44,44,0,0,0,27.08,24.11A59.34,59.34,0,0,0,641.11,316a101.16,101.16,0,0,0,26.73-3.32,100,100,0,0,0,22.39-9,111,111,0,0,0,19.2-13.49q8.91-7.76,17.13-16.45Z"/><path d="M971.51,321.27H960.09a4,4,0,0,1-3.43-1.48c-.76-1-1.45-1.87-2.06-2.63L879.88,211.59a12.84,12.84,0,0,1-2.51,5.26l-72.2,100.31c-.77.91-1.57,1.83-2.4,2.74a4.31,4.31,0,0,1-3.32,1.37H788.71l83.18-114.93L791.91,96h11.43a4,4,0,0,1,3.31,1.26c.69.84,1.33,1.64,1.94,2.4l72,101.22c.3-.91.65-1.83,1-2.74a10.82,10.82,0,0,1,1.71-2.74l68.78-95.52a17.43,17.43,0,0,1,2.17-2.62A4.19,4.19,0,0,1,957.35,96h11l-80,109.45Z"/><path d="M788.71,321.27,708,424.21s7,2,13-2,84.21-105,84.21-105Z"/></svg>