<svg id="Layer_1" enable-background="new 0 0 512 512" height="512" viewBox="0 0 512 512" width="512" xmlns="http://www.w3.org/2000/svg"><g><g><path d="m160 92v16h-32c-17.645 0-32 14.355-32 32v16.667c0 35.29 28.71 64 64 64h24.706c17.57 19.473 43.001 31.714 71.294 31.714 53.019 0 96-42.98 96-96v-64.381zm0 96.667c-17.645 0-32-14.355-32-32v-16.667h32v16.381c0 11.328 1.968 22.195 5.571 32.286z" fill="#fbbe18"/><g><path d="m324.762 388c0-12.729-10.319-23.048-23.048-23.048-19.093 0-34.571-15.478-34.571-34.571v-83.762h-23.048v83.762c0 19.093-15.478 34.571-34.571 34.571-12.729 0-23.048 10.319-23.048 23.048z" fill="#fbbe18"/></g><g><path d="m324.762 388c0-12.729-10.319-23.048-23.048-23.048-19.093 0-34.571-15.478-34.571-34.571v-83.762h-23.048v28.81h11.524v112.571z" fill="#f68820"/></g><g><path d="m352 92h-192c-8.837 0-16-7.163-16-16 0-8.837 7.163-16 16-16h192c8.837 0 16 7.163 16 16 0 8.837-7.163 16-16 16z" fill="#f68820"/></g><g><path d="m256 92h-96c-8.837 0-16-7.163-16-16 0-8.837 7.163-16 16-16h96c8.837 0 16 7.163 16 16 0 8.837-7.163 16-16 16z" fill="#fbbe18"/></g><path d="m384 108h-32v-16h-192v16h96v48.381c0 35.533-19.306 66.555-48 83.154 14.121 8.169 30.514 12.846 48 12.846 28.293 0 53.724-12.242 71.294-31.714h24.706c35.29 0 64-28.71 64-64v-16.667c0-17.645-14.355-32-32-32zm0 48.667c0 17.645-14.355 32-32 32h-5.571c3.603-10.09 5.571-20.958 5.571-32.286v-16.381h32z" fill="#f68820"/><g><circle cx="208" cy="156" fill="#fbd301" r="16"/></g></g><g><g><path d="m224 300h-16v-8c0-13.255-10.745-24-24-24h-40c-17.673 0-32 14.327-32 32v136c10.245 10.245 24.139 16 38.627 16h73.373c17.673 0 32-14.327 32-32v-88c0-17.673-14.327-32-32-32z" fill="#464646"/></g><g><path d="m64 428v-120c0-4.418 3.582-8 8-8h40v136h-40c-4.418 0-8-3.582-8-8z" fill="#323232"/></g><g><path d="m64 364v-56c0-4.418 3.582-8 8-8h24v64z" fill="#464646"/></g><g><path d="m160 296c0 2.209 1.791 4 4 4h44v-8h-44c-2.209 0-4 1.791-4 4z" fill="#323232"/></g><g><path d="m224 332h-56c-4.418 0-8-3.582-8-8s3.582-8 8-8h56c4.418 0 8 3.582 8 8s-3.582 8-8 8z" fill="#58595b"/></g></g><g><path d="m80 326.667v37.333h16v-37.333c0-4.418-3.582-8-8-8-4.418 0-8 3.581-8 8z" fill="#d7e6f0"/></g><g><path d="m80 364v45.333c0 4.418 3.582 8 8 8 4.418 0 8-3.582 8-8v-45.333z" fill="#8caac8"/></g><g><path d="m16 308h48v120h-48z" fill="#fab991" transform="matrix(-1 0 0 -1 80 736)"/></g><g><path d="m16 364h48v64h-48z" fill="#f0915a" transform="matrix(-1 0 0 -1 80 792)"/></g><g><g><path d="m368 268h-40c-13.255 0-24 10.745-24 24v8h-16c-17.673 0-32 14.327-32 32v88c0 17.673 14.327 32 32 32h73.373c14.488 0 28.383-5.755 38.627-16v-136c0-17.673-14.327-32-32-32z" fill="#f04b37"/></g><g><path d="m344 332h-56c-4.418 0-8-3.582-8-8s3.582-8 8-8h56c4.418 0 8 3.582 8 8s-3.582 8-8 8z" fill="#ff6955"/></g><g><path d="m448 428v-120c0-4.418-3.582-8-8-8h-40v136h40c4.418 0 8-3.582 8-8z" fill="#be281e"/></g><g><path d="m448 364v-56c0-4.418-3.582-8-8-8h-24v64z" fill="#f04b37"/></g><g><path d="m352 296c0 2.209-1.791 4-4 4h-44v-8h44c2.209 0 4 1.791 4 4z" fill="#be281e"/></g></g><g><path d="m432 326.667v37.333h-16v-37.333c0-4.418 3.582-8 8-8 4.418 0 8 3.581 8 8z" fill="#d7e6f0"/></g><g><path d="m432 364v45.333c0 4.418-3.582 8-8 8-4.418 0-8-3.582-8-8v-45.333z" fill="#8caac8"/></g><g><path d="m448 308h48v120h-48z" fill="#fab991"/></g><g><path d="m448 364h48v64h-48z" fill="#f0915a"/></g><g><g><path d="m416 236h-16v-16c0-4.418 3.582-8 8-8 4.418 0 8 3.582 8 8z" fill="#fabe19"/></g><g><path d="m440 244c0 4.418-3.582 8-8 8h-16v-16h16c4.418 0 8 3.582 8 8z" fill="#fabe19"/></g><g><path d="m400 252h16v16c0 4.418-3.582 8-8 8-4.418 0-8-3.582-8-8z" fill="#fabe19"/></g><g><path d="m376 244c0-4.418 3.582-8 8-8h16v16h-16c-4.418 0-8-3.582-8-8z" fill="#fabe19"/></g></g><g><g><path d="m112 236h-16v-16c0-4.418 3.582-8 8-8 4.418 0 8 3.582 8 8z" fill="#fabe19"/></g><g><path d="m136 244c0 4.418-3.582 8-8 8h-16v-16h16c4.418 0 8 3.582 8 8z" fill="#fabe19"/></g><g><path d="m96 252h16v16c0 4.418-3.582 8-8 8-4.418 0-8-3.582-8-8z" fill="#fabe19"/></g><g><path d="m72 244c0-4.418 3.582-8 8-8h16v16h-16c-4.418 0-8-3.582-8-8z" fill="#fabe19"/></g></g></g></svg>