<?xml version="1.0" encoding="utf-8"?>
<!-- Generator: Adobe Illustrator 25.1.0, SVG Export Plug-In . SVG Version: 6.00 Build 0)  -->
<svg version="1.1" id="Layer_1" xmlns="http://www.w3.org/2000/svg" xmlns:xlink="http://www.w3.org/1999/xlink" x="0px" y="0px"
	 viewBox="0 0 512 512" style="enable-background:new 0 0 512 512;" xml:space="preserve">
<style type="text/css">
	.st0{fill:#FFC61B;}
	.st1{fill:#EAA22F;}
	.st2{fill:#FFFFFF;}
</style>
<g>
</g>
<path class="st0" d="M207.8,270.7c-31.7-46.3-29.9-105.6-0.2-149.4c-15.7,3.6-31.1,10.1-45.2,19.8c-60.4,41.3-75.9,123.8-34.6,184.3
	s123.8,76,184.3,34.6c14.1-9.7,25.8-21.6,34.8-34.9C295.3,336.9,239.4,317,207.8,270.7z"/>
<path class="st1" d="M207.8,270.7c-0.5-0.7-0.9-1.4-1.4-2.1l-79.5,55.5c0.3,0.4,0.6,0.9,0.9,1.3c41.3,60.4,123.8,76,184.3,34.6
	c14.1-9.7,25.8-21.6,34.8-34.9C295.3,336.9,239.4,317,207.8,270.7z"/>
<g>
	<path class="st2" d="M327.1,163.3c1.8,0,3.5-0.7,4.9-2c2.7-2.7,2.7-7.1,0-9.8l-9.3-9.3l9.3-9.3c2.7-2.7,2.7-7.1,0-9.8
		c-2.7-2.7-7.1-2.7-9.8,0l-9.3,9.3l-9.3-9.3c-2.7-2.7-7.1-2.7-9.8,0c-2.7,2.7-2.7,7.1,0,9.8l9.3,9.3l-9.3,9.3
		c-2.7,2.7-2.7,7.1,0,9.8c1.3,1.3,3.1,2,4.9,2s3.5-0.7,4.9-2l9.3-9.3l9.3,9.3C323.6,162.7,325.3,163.3,327.1,163.3z"/>
	<path class="st2" d="M342.3,292.5l-5.5-5.5l5.5-5.5c2.7-2.7,2.7-7.1,0-9.8c-2.7-2.7-7.1-2.7-9.8,0l-5.5,5.5l-5.5-5.5
		c-2.7-2.7-7.1-2.7-9.8,0c-2.7,2.7-2.7,7.1,0,9.8l5.5,5.5l-5.5,5.5c-2.7,2.7-2.7,7.1,0,9.8c1.3,1.3,3.1,2,4.9,2s3.5-0.7,4.9-2
		l5.5-5.5l5.5,5.5c1.3,1.3,3.1,2,4.9,2c1.8,0,3.5-0.7,4.9-2C345,299.6,345,295.2,342.3,292.5z"/>
	<path class="st2" d="M398.4,199c-2.7-2.7-7.1-2.7-9.8,0l-4.6,4.6l-4.6-4.6c-2.7-2.7-7.1-2.7-9.8,0c-2.7,2.7-2.7,7.1,0,9.8l4.6,4.6
		l-4.6,4.6c-2.7,2.7-2.7,7.1,0,9.8c1.3,1.3,3.1,2,4.9,2c1.8,0,3.5-0.7,4.9-2l4.6-4.6l4.6,4.6c1.3,1.3,3.1,2,4.9,2s3.5-0.7,4.9-2
		c2.7-2.7,2.7-7.1,0-9.8l-4.6-4.6l4.6-4.6C401.1,206,401.1,201.7,398.4,199z"/>
	<path class="st2" d="M222.9,421.8c-2.7-2.7-7.1-2.7-9.8,0l-4.6,4.6l-4.6-4.6c-2.7-2.7-7.1-2.7-9.8,0c-2.7,2.7-2.7,7.1,0,9.8
		l4.6,4.6l-4.6,4.6c-2.7,2.7-2.7,7.1,0,9.8c1.3,1.3,3.1,2,4.9,2c1.8,0,3.5-0.7,4.9-2l4.6-4.6l4.6,4.6c1.3,1.3,3.1,2,4.9,2
		s3.5-0.7,4.9-2c2.7-2.7,2.7-7.1,0-9.8l-4.6-4.6l4.6-4.6C225.6,428.9,225.6,424.5,222.9,421.8z"/>
	<path class="st2" d="M445.9,293.9l4.6-4.6c2.7-2.7,2.7-7.1,0-9.8c-2.7-2.7-7.1-2.7-9.8,0l-4.6,4.6l-4.6-4.6c-2.7-2.7-7.1-2.7-9.8,0
		c-2.7,2.7-2.7,7.1,0,9.8l4.6,4.6l-4.6,4.6c-2.7,2.7-2.7,7.1,0,9.8c1.3,1.3,3.1,2,4.9,2s3.5-0.7,4.9-2l4.6-4.6l4.6,4.6
		c1.3,1.3,3.1,2,4.9,2c1.8,0,3.5-0.7,4.9-2c2.7-2.7,2.7-7.1,0-9.8L445.9,293.9z"/>
	<path class="st2" d="M374.7,393.3c-2.7-2.7-7.1-2.7-9.8,0l-4.6,4.6l-4.6-4.6c-2.7-2.7-7.1-2.7-9.8,0c-2.7,2.7-2.7,7.1,0,9.8
		l4.6,4.6l-4.6,4.6c-2.7,2.7-2.7,7.1,0,9.8c1.3,1.3,3.1,2,4.9,2c1.8,0,3.5-0.7,4.9-2l4.6-4.6l4.6,4.6c1.3,1.3,3.1,2,4.9,2
		s3.5-0.7,4.9-2c2.7-2.7,2.7-7.1,0-9.8l-4.6-4.6l4.6-4.6C377.3,400.4,377.3,396,374.7,393.3z"/>
	<path class="st2" d="M241.1,185.2c-2.7-2.7-7.1-2.7-9.8,0l-2,2l-2-2c-2.7-2.7-7.1-2.7-9.8,0c-2.7,2.7-2.7,7.1,0,9.8l2,2l-2,2
		c-2.7,2.7-2.7,7.1,0,9.8c1.3,1.3,3.1,2,4.9,2s3.5-0.7,4.9-2l2-2l2,2c1.3,1.3,3.1,2,4.9,2c1.8,0,3.5-0.7,4.9-2
		c2.7-2.7,2.7-7.1,0-9.8l-2-2l2-2C243.7,192.2,243.7,187.9,241.1,185.2z"/>
</g>
</svg>
