<?xml version="1.0" encoding="utf-8"?>
<!-- Generator: Adobe Illustrator 25.1.0, SVG Export Plug-In . SVG Version: 6.00 Build 0)  -->
<svg version="1.1" id="Layer_1" xmlns:svgjs="http://svgjs.com/svgjs"
	 xmlns="http://www.w3.org/2000/svg" xmlns:xlink="http://www.w3.org/1999/xlink" x="0px" y="0px" viewBox="0 0 512 512"
	 style="enable-background:new 0 0 512 512;" xml:space="preserve">
<style type="text/css">
	.st0{fill:#FFC61B;}
	.st1{fill:#EAA22F;}
</style>
<g>
	<circle class="st0" cx="256" cy="256" r="108.9"/>
	<path class="st1" d="M256,147.1c-0.2,0-0.4,0-0.6,0v217.8c0.2,0,0.4,0,0.6,0c60.2,0,108.9-48.8,108.9-108.9
		C364.9,195.8,316.2,147.1,256,147.1z"/>
	<g>
		<path class="st0" d="M256,126.6c-3.8,0-6.9-3.1-6.9-6.9V88.3c0-3.8,3.1-6.9,6.9-6.9c3.8,0,6.9,3.1,6.9,6.9v31.4
			C262.9,123.5,259.8,126.6,256,126.6z"/>
		<path class="st0" d="M256,430.5c-3.8,0-6.9-3.1-6.9-6.9v-31.4c0-3.8,3.1-6.9,6.9-6.9c3.8,0,6.9,3.1,6.9,6.9v31.4
			C262.9,427.5,259.8,430.5,256,430.5z"/>
	</g>
	<g>
		<path class="st1" d="M256,81.5c-0.2,0-0.4,0-0.6,0.1v45.1c0.2,0,0.4,0.1,0.6,0.1c3.8,0,6.9-3.1,6.9-6.9V88.3
			C262.9,84.5,259.8,81.5,256,81.5z"/>
		<path class="st1" d="M256,385.4c-0.2,0-0.4,0-0.6,0.1v45.1c0.2,0,0.4,0.1,0.6,0.1c3.8,0,6.9-3.1,6.9-6.9v-31.4
			C262.9,388.5,259.8,385.4,256,385.4z"/>
		<path class="st1" d="M423.6,262.9h-31.4c-3.8,0-6.9-3.1-6.9-6.9c0-3.8,3.1-6.9,6.9-6.9h31.4c3.8,0,6.9,3.1,6.9,6.9
			C430.5,259.8,427.5,262.9,423.6,262.9z"/>
	</g>
	<path class="st0" d="M119.7,262.9H88.3c-3.8,0-6.9-3.1-6.9-6.9c0-3.8,3.1-6.9,6.9-6.9h31.4c3.8,0,6.9,3.1,6.9,6.9
		C126.6,259.8,123.5,262.9,119.7,262.9z"/>
	<path class="st1" d="M352.4,166.5c-1.8,0-3.5-0.7-4.9-2c-2.7-2.7-2.7-7.1,0-9.8l22.2-22.2c2.7-2.7,7.1-2.7,9.8,0
		c2.7,2.7,2.7,7.1,0,9.8l-22.2,22.2C355.9,165.9,354.1,166.5,352.4,166.5z"/>
	<g>
		<path class="st0" d="M137.5,381.4c-1.8,0-3.5-0.7-4.9-2c-2.7-2.7-2.7-7.1,0-9.8l22.2-22.2c2.7-2.7,7.1-2.7,9.8,0
			c2.7,2.7,2.7,7.1,0,9.8l-22.2,22.2C141,380.8,139.2,381.4,137.5,381.4z"/>
		<path class="st0" d="M159.6,166.5c-1.8,0-3.5-0.7-4.9-2l-22.2-22.2c-2.7-2.7-2.7-7.1,0-9.8c2.7-2.7,7.1-2.7,9.8,0l22.2,22.2
			c2.7,2.7,2.7,7.1,0,9.8C163.2,165.9,161.4,166.5,159.6,166.5z"/>
	</g>
	<path class="st1" d="M374.5,381.4c-1.8,0-3.5-0.7-4.9-2l-22.2-22.2c-2.7-2.7-2.7-7.1,0-9.8c2.7-2.7,7.1-2.7,9.8,0l22.2,22.2
		c2.7,2.7,2.7,7.1,0,9.8C378.1,380.8,376.3,381.4,374.5,381.4z"/>
</g>
</svg>
