<svg height="512pt" viewBox="-8 0 512 512.00016" width="512pt" xmlns="http://www.w3.org/2000/svg"><path d="m384.796875 19.042969c0-10.519531-8.523437-19.042969-19.039063-19.042969h-346.714843c-10.519531 0-19.042969 8.523438-19.042969 19.042969v452.746093c0 22.207032 18.003906 40.210938 40.210938 40.210938h357.097656c-7.882813-11.445312-12.511719-25.296875-12.511719-40.210938zm-64.058594 444.335937h-256.675781c-8.527344 0-15.441406-6.914062-15.441406-15.441406s6.914062-15.4375 15.441406-15.4375h256.671875c8.527344 0 15.441406 6.910156 15.441406 15.4375s-6.914062 15.441406-15.4375 15.441406zm0-65.875h-256.675781c-8.527344 0-15.441406-6.910156-15.441406-15.4375s6.914062-15.4375 15.441406-15.4375h256.671875c8.527344 0 15.441406 6.910156 15.441406 15.4375s-6.914062 15.4375-15.4375 15.4375zm0-65.871094h-256.675781c-8.527344 0-15.441406-6.914062-15.441406-15.4375 0-8.527343 6.914062-15.441406 15.441406-15.441406h256.671875c8.527344 0 15.441406 6.914063 15.441406 15.441406 0 8.523438-6.914062 15.4375-15.4375 15.4375zm0-65.871093h-256.675781c-8.527344 0-15.441406-6.914063-15.441406-15.441407 0-8.523437 6.914062-15.4375 15.441406-15.4375h256.671875c8.527344 0 15.441406 6.914063 15.441406 15.4375 0 8.527344-6.914062 15.441407-15.4375 15.441407zm15.4375-81.3125c0 8.527343-6.914062 15.4375-15.4375 15.4375h-256.675781c-8.527344 0-15.441406-6.910157-15.441406-15.4375v-120.386719c0-8.527344 6.914062-15.441406 15.441406-15.441406h256.671875c8.527344 0 15.441406 6.914062 15.441406 15.441406zm0 0"/><path d="m477.058594 139.695312h-61.382813v332.09375c0 22.496094 18.566407 40.734376 41.183594 40.199219 21.949219-.519531 39.242187-18.996093 39.242187-40.953125v-312.300781c0-10.515625-8.527343-19.039063-19.042968-19.039063zm0 0"/><path d="m79.5 79.5h225.796875v89.511719h-225.796875zm0 0"/></svg>