<svg height="512pt" viewBox="0 -92 512 512" width="512pt" xmlns="http://www.w3.org/2000/svg"><path d="m495.042969 98.554688h16.957031v-83.316407c0-8.414062-6.824219-15.238281-15.238281-15.238281h-85.03125v15.238281c0 45.941407 37.375 83.316407 83.3125 83.316407zm0 0"/><path d="m255.996094 108.707031c-23.773438 0-43.113282 24.613281-43.113282 54.867188 0 30.253906 19.339844 54.867187 43.113282 54.867187 23.773437 0 43.117187-24.613281 43.117187-54.867187 0-30.253907-19.34375-54.867188-43.117187-54.867188zm0 0"/><path d="m411.730469 311.917969v15.238281h85.03125c8.414062 0 15.238281-6.824219 15.238281-15.238281v-83.316407h-16.957031c-45.9375 0-83.3125 37.375-83.3125 83.316407zm0 0"/><path d="m15.238281 228.601562h-15.238281v83.3125c0 8.417969 6.824219 15.242188 15.238281 15.242188h83.316407v-15.242188c0-45.9375-37.375-83.3125-83.316407-83.3125zm0 0"/><path d="m98.554688 15.238281v-15.238281h-83.316407c-8.414062 0-15.238281 6.824219-15.238281 15.238281v83.316407h15.238281c45.941407 0 83.316407-37.375 83.316407-83.316407zm0 0"/><path d="m495.042969 129.035156c-62.746094 0-113.792969-51.050781-113.792969-113.796875v-15.238281h-252.214844v15.238281c0 62.75-51.050781 113.796875-113.796875 113.796875h-15.238281v69.085938h15.238281c62.75 0 113.796875 51.046875 113.796875 113.792968v15.242188h252.214844v-15.242188c0-62.746093 51.046875-113.792968 113.792969-113.792968h16.957031v-69.085938zm-239.046875 119.886719c-40.578125 0-73.59375-38.289063-73.59375-85.347656 0-47.058594 33.015625-85.347657 73.59375-85.347657 40.582031 0 73.59375 38.289063 73.59375 85.347657 0 47.058593-33.011719 85.347656-73.59375 85.347656zm0 0"/></svg>