<svg height="512.00103pt" viewBox="0 0 512.00103 512.00103" width="512.00103pt" xmlns="http://www.w3.org/2000/svg"><path d="m256 99.933594c-86.054688 0-156.066406 70.011718-156.066406 156.066406s70.011718 156.066406 156.066406 156.066406 156.066406-70.011718 156.066406-156.066406-70.011718-156.066406-156.066406-156.066406zm82.765625 238.832031c-3.007813 3.007813-6.949219 4.511719-10.890625 4.511719s-7.882812-1.503906-10.890625-4.511719l-71.875-71.875c-2.894531-2.898437-4.382813-6.660156-4.488281-10.457031-.007813 0-.011719 0-.019532 0v-104.128906c0-8.503907 6.894532-15.402344 15.398438-15.402344 8.507812 0 15.402344 6.898437 15.402344 15.402344v97.316406l67.363281 67.363281c6.011719 6.015625 6.011719 15.765625 0 21.78125zm0 0"/><path d="m437.019531 74.980469c-48.351562-48.351563-112.640625-74.980469-181.019531-74.980469s-132.667969 26.628906-181.019531 74.980469c-48.351563 48.351562-74.980469 112.640625-74.980469 181.019531s26.628906 132.667969 74.980469 181.019531c48.351562 48.351563 112.640625 74.980469 181.019531 74.980469 68.382812 0 132.667969-26.628906 181.019531-74.980469 48.351563-48.351562 74.980469-112.640625 74.980469-181.019531s-26.628906-132.667969-74.980469-181.019531zm-181.019531 367.886719c-103.039062 0-186.867188-83.828126-186.867188-186.867188s83.828126-186.867188 186.867188-186.867188 186.867188 83.828126 186.867188 186.867188-83.828126 186.867188-186.867188 186.867188zm0 0"/></svg>