<svg height="512pt" viewBox="0 -10 512 512" width="512pt" xmlns="http://www.w3.org/2000/svg"><path d="m240.914062 372.769531c-26.242187 6.722657-45.695312 30.574219-45.695312 58.882813 0 33.515625 27.265625 60.785156 60.78125 60.785156s60.78125-27.269531 60.78125-60.785156c0-28.308594-19.457031-52.15625-45.695312-58.882813v-41.191406h-30.171876zm0 0"/><path d="m143.308594 404.78125c0 6.5-5.285156 11.789062-11.785156 11.789062h-11.855469c-6.726563-26.246093-30.574219-45.699218-58.886719-45.699218-33.515625 0-60.78125 27.265625-60.78125 60.78125 0 33.519531 27.265625 60.785156 60.78125 60.785156 28.3125 0 52.160156-19.457031 58.886719-45.699219h11.855469c23.132812 0 41.953124-18.820312 41.953124-41.953125v-73.207031h-30.167968zm0 0"/><path d="m451.21875 370.871094c-28.3125 0-52.160156 19.457031-58.886719 45.699218h-11.855469c-6.5 0-11.785156-5.289062-11.785156-11.785156v-73.207031h-30.171875v73.207031c0 23.132813 18.824219 41.953125 41.957031 41.953125h11.855469c6.726563 26.242188 30.574219 45.699219 58.886719 45.699219 33.515625 0 60.78125-27.269531 60.78125-60.785156s-27.265625-60.78125-60.78125-60.78125zm0 0"/><path d="m512 204.40625c0-53.488281-43.515625-97.003906-97.003906-97.003906-4.796875 0-9.570313.355468-14.289063 1.054687-18.472656-63.703125-77.007812-108.457031-144.707031-108.457031s-126.234375 44.753906-144.707031 108.457031c-4.71875-.703125-9.492188-1.054687-14.289063-1.054687-53.488281 0-97.003906 43.515625-97.003906 97.003906s43.515625 97.003906 97.003906 97.003906h317.992188c53.488281 0 97.003906-43.515625 97.003906-97.003906zm0 0"/></svg>