<svg height="512pt" viewBox="-96 0 512 512" width="512pt" xmlns="http://www.w3.org/2000/svg"><path d="m319.726562 375.382812v-327.375c0-26.472656-21.539062-48.007812-48.007812-48.007812h-223.710938c-26.472656 0-48.007812 21.535156-48.007812 48.007812v327.375zm-238.667968-122.707031h9.558594v-53.214843c0-8.480469 6.871093-15.351563 15.351562-15.351563 8.476562 0 15.351562 6.871094 15.351562 15.351563v53.214843h23.195313v-83.917969c0-8.476562 6.871094-15.351562 15.351563-15.351562 8.476562 0 15.347656 6.875 15.347656 15.351562v83.917969h23.199218v-114.621093c0-8.476563 6.871094-15.347657 15.351563-15.347657 8.476563 0 15.351563 6.871094 15.351563 15.347657v114.621093h9.550781c8.476562 0 15.351562 6.875 15.351562 15.351563 0 8.476562-6.875 15.351562-15.351562 15.351562h-157.609375c-8.476563 0-15.351563-6.875-15.351563-15.351562 0-8.476563 6.875-15.351563 15.351563-15.351563zm0 0"/><path d="m0 406.085938v57.90625c0 26.472656 21.535156 48.007812 48.007812 48.007812h223.710938c26.46875 0 48.007812-21.535156 48.007812-48.007812v-57.90625zm195.628906 66.257812h-71.53125c-8.476562 0-15.351562-6.871094-15.351562-15.347656 0-8.480469 6.875-15.351563 15.351562-15.351563h71.53125c8.476563 0 15.351563 6.871094 15.351563 15.351563 0 8.476562-6.875 15.347656-15.351563 15.347656zm0 0"/></svg>