<svg height="512pt" viewBox="-68 0 512 512" width="512pt" xmlns="http://www.w3.org/2000/svg"><path d="m172.957031 380.664062v-114.75l-59.445312-59.441406c-6.007813-6.007812-6.007813-15.746094 0-21.75 6.003906-6.007812 15.742187-6.007812 21.75 0l53.078125 53.078125 53.078125-53.078125c6.003906-6.007812 15.742187-6.007812 21.75 0 6.003906 6.003906 6.003906 15.742188 0 21.75l-59.453125 59.449219v114.742187h85.167968c3.195313-21.089843 13.363282-40.824218 28.984376-55.625 18.375-17.414062 32.832031-37.945312 42.972656-61.027343 10.503906-23.90625 15.828125-49.367188 15.828125-75.679688 0-49.90625-19.324219-96.933593-54.410157-132.417969-35.058593-35.453124-81.808593-55.304687-131.632812-55.9023432-.765625-.00781255-1.515625-.0117188-2.277344-.0117188-102.441406 0-186.710937 82.664062-188.3242185 185.308594-.4179685 26.742187 4.6523435 52.65625 15.0820315 77.03125 10.054687 23.507812 24.566406 44.417968 43.128906 62.15625 15.90625 15.195312 26.265625 35.117187 29.53125 56.167968zm0 0"/><path d="m88.878906 411.421875v27.941406c0 40.054688 32.582032 72.636719 72.632813 72.636719h53.652343c40.050782 0 72.636719-32.582031 72.636719-72.636719v-27.941406zm0 0"/></svg>