<svg height="512pt" viewBox="-106 0 512 512" width="512pt" xmlns="http://www.w3.org/2000/svg"><path d="m149.507812 140.152344c-6.15625 0-11.164062 5.007812-11.164062 11.164062v77.785156c0 6.15625 5.007812 11.164063 11.164062 11.164063s11.164063-5.007813 11.164063-11.164063v-77.785156c0-6.15625-5.007813-11.164062-11.164063-11.164062zm0 0"/><path d="m164.855469 0v112.386719c15.503906 6.136719 26.507812 21.265625 26.507812 38.929687v77.785156c0 23.078126-18.777343 41.855469-41.855469 41.855469-23.078124 0-41.855468-18.777343-41.855468-41.855469v-77.785156c0-17.664062 11.003906-32.792968 26.511718-38.929687v-112.386719c-75.257812 7.707031-134.164062 71.464844-134.164062 148.722656v213.773438c0 82.4375 67.066406 149.503906 149.503906 149.503906s149.503906-67.066406 149.503906-149.503906v-213.773438c0-77.257812-58.902343-141.011718-134.152343-148.722656zm0 0"/></svg>