<svg height="512.00103pt" viewBox="0 0 512.00103 512.00103" width="512.00103pt" xmlns="http://www.w3.org/2000/svg"><path d="m457.128906 164.988281c-2.921875 3.003907-6.914062 4.671875-11.046875 4.671875-.679687 0-1.363281-.046875-2.042969-.136718l-40.121093-5.363282c16.625 26.679688 26.246093 58.15625 26.246093 91.839844 0 96.035156-78.128906 174.167969-174.164062 174.167969s-174.164062-78.132813-174.164062-174.167969 78.128906-174.164062 174.164062-174.164062c33.734375 0 65.25 9.648437 91.953125 26.316406l-6.304687-37.71875c-.808594-4.839844.734374-9.777344 4.160156-13.289063l27.882812-28.605469c-35.929687-18.644531-76.046875-28.539062-117.691406-28.539062-68.378906 0-132.667969 26.628906-181.019531 74.980469-48.351563 48.351562-74.980469 112.640625-74.980469 181.019531s26.628906 132.667969 74.980469 181.019531c48.351562 48.351563 112.640625 74.980469 181.019531 74.980469 68.382812 0 132.667969-26.628906 181.019531-74.980469 48.351563-48.351562 74.980469-112.640625 74.980469-181.019531 0-41.753906-9.945312-81.972656-28.683594-117.976562zm0 0"/><path d="m256 271.402344c-3.976562 0-7.953125-1.53125-10.96875-4.589844-5.96875-6.054688-5.902344-15.808594.15625-21.78125l38.671875-38.125c-8.230469-4.6875-17.734375-7.378906-27.859375-7.378906-31.140625 0-56.472656 25.332031-56.472656 56.472656s25.332031 56.472656 56.472656 56.472656 56.472656-25.332031 56.472656-56.472656c0-9.839844-2.539062-19.101562-6.980468-27.167969l-38.679688 38.136719c-3 2.957031-6.90625 4.433594-10.8125 4.433594zm0 0"/><path d="m327.957031 206.683594c9.652344 14.042968 15.316407 31.027344 15.316407 49.316406 0 48.125-39.148438 87.273438-87.273438 87.273438s-87.273438-39.148438-87.273438-87.273438 39.148438-87.273438 87.273438-87.273438c18.730469 0 36.085938 5.949219 50.320312 16.03125l40.320313-39.75c-24.71875-20.222656-56.285156-32.371093-90.640625-32.371093-79.050781 0-143.363281 64.3125-143.363281 143.363281s64.3125 143.363281 143.363281 143.363281 143.363281-64.3125 143.363281-143.363281c0-33.625-11.640625-64.582031-31.097656-89.058594zm0 0"/><path d="m424.726562 100.46875c-6.699218-.898438-12.03125-6.058594-13.144531-12.722656l-7.710937-46.039063-30.554688 31.347657 9.566406 57.21875 57.550782 7.691406 30.421875-31.324219zm0 0"/></svg>