<svg height="512pt" viewBox="0 -12 512 511" width="512pt" xmlns="http://www.w3.org/2000/svg"><path d="m197.554688 423.972656v31.773438h-18.867188c-8.699219 0-15.75 7.050781-15.75 15.75 0 8.699218 7.050781 15.75 15.75 15.75h154.625c8.699219 0 15.75-7.050782 15.75-15.75 0-8.699219-7.050781-15.75-15.75-15.75h-18.867188v-31.773438zm0 0"/><path d="m512 33.878906c0-18.433594-14.945312-33.378906-33.378906-33.378906h-445.242188c-18.433594 0-33.378906 14.945312-33.378906 33.378906v267.433594h512zm-256 233.242188c-64.082031 0-116.210938-52.132813-116.210938-116.214844 0-64.078125 52.128907-116.210938 116.210938-116.210938 64.078125 0 116.210938 52.132813 116.210938 116.210938s-52.128907 116.214844-116.210938 116.214844zm0 0"/><path d="m256 166.65625c-8.699219 0-15.75-7.050781-15.75-15.75v-83.21875c-39.207031 7.40625-68.960938 41.894531-68.960938 83.21875 0 46.710938 38 84.710938 84.710938 84.710938 41.328125 0 75.8125-29.753907 83.21875-68.960938zm0 0"/><path d="m271.75 135.15625h67.46875c-6.4375-34.097656-33.367188-61.027344-67.46875-67.46875zm0 0"/><path d="m0 359.089844c0 18.4375 14.945312 33.378906 33.378906 33.378906h445.242188c18.433594 0 33.378906-14.941406 33.378906-33.378906v-26.273438h-512zm0 0"/></svg>