<svg height="512pt" viewBox="0 0 512.00021 512" width="512pt" xmlns="http://www.w3.org/2000/svg"><path d="m457.242188 447.09375 14.75-14.753906c6.617187-6.613282 10.261718-15.410156 10.261718-24.769532 0-9.355468-3.644531-18.152343-10.261718-24.765624l-71.035157-71.039063c-13.65625-13.65625-35.882812-13.660156-49.539062 0l-14.75 14.753906zm0 0"/><path d="m314.769531 348.414062-8.558593 8.558594c-2.699219 2.699219-6.285157 4.183594-10.105469 4.183594-3.816407 0-7.40625-1.484375-10.105469-4.183594l-131.742188-131.742187c-5.570312-5.574219-5.570312-14.640625 0-20.214844l8.558594-8.554687-120.566406-120.566407c-56.542969 57.246094-56.335938 149.808594.640625 206.785157l185.660156 185.660156c27.703125 27.703125 64.539063 42.964844 103.722657 42.964844 38.871093 0 75.433593-15.027344 103.0625-42.324219zm0 0"/><path d="m184.710938 174.5625 14.753906-14.75c13.65625-13.65625 13.65625-35.878906 0-49.535156l-71.039063-71.039063c-13.65625-13.65625-35.878906-13.65625-49.535156 0l-14.753906 14.75zm0 0"/><path d="m261.285156 187.507812c34.855469 0 63.207032 28.355469 63.207032 63.207032 0 8.550781 6.933593 15.480468 15.484374 15.480468 8.550782 0 15.480469-6.929687 15.480469-15.480468 0-51.929688-42.246093-94.171875-94.171875-94.171875-8.546875 0-15.480468 6.933593-15.480468 15.484375 0 8.546875 6.933593 15.480468 15.480468 15.480468zm0 0"/><path d="m261.285156 113.886719c75.449219 0 136.828125 61.378906 136.828125 136.828125 0 8.550781 6.933594 15.480468 15.484375 15.480468 8.550782 0 15.480469-6.929687 15.480469-15.480468 0-92.523438-75.269531-167.792969-167.792969-167.792969-8.546875 0-15.480468 6.929687-15.480468 15.480469 0 8.550781 6.933593 15.484375 15.480468 15.484375zm0 0"/><path d="m438.566406 73.433594c-47.351562-47.355469-110.3125-73.433594-177.28125-73.433594-8.546875 0-15.480468 6.933594-15.480468 15.484375s6.933593 15.480469 15.480468 15.480469c121.171875 0 219.75 98.578125 219.75 219.75 0 8.550781 6.929688 15.480468 15.480469 15.480468s15.484375-6.929687 15.484375-15.480468c0-66.96875-26.078125-129.929688-73.433594-177.28125zm0 0"/></svg>