<svg height="512.00103pt" viewBox="0 0 512.00103 512.00103" width="512.00103pt" xmlns="http://www.w3.org/2000/svg"><path d="m240.820312 255.765625v-255.765625c-62.648437 3.695312-121.03125 29.832031-165.773437 74.574219-48.394531 48.394531-75.046875 112.742187-75.046875 181.191406 0 68.441406 26.652344 132.785156 75.046875 181.183594 48.394531 48.398437 112.746094 75.050781 181.191406 75.050781 68.4375 0 132.785157-26.652344 181.183594-75.050781 44.746094-44.746094 70.886719-103.125 74.578125-165.769531h-255.761719c-8.515625 0-15.417969-6.902344-15.417969-15.414063zm0 0"/><path d="m437.421875 74.574219c-44.746094-44.742188-103.125-70.878907-165.769531-74.574219v240.347656h240.347656c-3.695312-62.644531-29.832031-121.027344-74.578125-165.773437zm0 0"/></svg>