<svg height="512pt" viewBox="0 -68 512 511" width="512pt" xmlns="http://www.w3.org/2000/svg"><path d="m488.21875 275.945312v-235.3125c0-22.128906-18.003906-40.132812-40.132812-40.132812h-384.171876c-22.128906 0-40.132812 18.003906-40.132812 40.132812v235.3125zm-87.824219-132.96875c0 8.46875-6.863281 15.332032-15.328125 15.332032-8.46875 0-15.332031-6.863282-15.332031-15.332032v-16.132812l-90.128906 90.128906c-2.871094 2.875-6.773438 4.492188-10.835938 4.492188-4.066406 0-7.964843-1.617188-10.839843-4.492188l-64.652344-64.652344-55.503906 55.5c-5.984376 5.988282-15.691407 5.984376-21.675782 0-5.988281-5.988281-5.988281-15.691406 0-21.679687l66.339844-66.339844c5.984375-5.984375 15.691406-5.984375 21.679688 0l64.652343 64.652344 79.289063-79.289063h-16.132813c-8.46875 0-15.332031-6.863281-15.332031-15.328124 0-8.464844 6.863281-15.328126 15.332031-15.328126h53.140625c8.464844 0 15.328125 6.863282 15.328125 15.328126zm0 0"/><path d="m0 306.601562v7.722657c0 33.203125 27.011719 60.210937 60.210938 60.210937h391.578124c33.199219 0 60.210938-27.007812 60.210938-60.210937v-7.722657zm0 0"/></svg>