<svg height="512pt" viewBox="0 0 512 512" width="512pt" xmlns="http://www.w3.org/2000/svg"><path d="m348.820312 240.773438c-6.488281-39.691407-37.902343-71.105469-77.597656-77.59375v77.59375zm0 0"/><path d="m240.773438 163.179688c-39.691407 6.488281-71.105469 37.902343-77.59375 77.59375h77.59375zm0 0"/><path d="m163.179688 271.226562c6.488281 39.691407 37.902343 71.105469 77.59375 77.59375v-77.59375zm0 0"/><path d="m271.226562 348.820312c39.691407-6.488281 71.105469-37.902343 77.59375-77.59375h-77.59375zm0 0"/><path d="m379.578125 271.226562c-6.921875 56.507813-51.847656 101.429688-108.355469 108.351563v132.421875c62.777344-3.652344 121.289063-29.824219 166.121094-74.65625s71.003906-103.34375 74.65625-166.117188zm0 0"/><path d="m271.226562 132.421875c56.507813 6.921875 101.429688 51.84375 108.351563 108.351563h132.421875c-3.652344-62.773438-29.824219-121.285157-74.65625-166.117188s-103.34375-71.003906-166.117188-74.65625zm0 0"/><path d="m132.421875 240.773438c6.921875-56.507813 51.84375-101.429688 108.351563-108.351563v-132.421875c-62.773438 3.652344-121.285157 29.824219-166.117188 74.65625s-71.003906 103.34375-74.65625 166.117188zm0 0"/><path d="m240.773438 379.578125c-56.507813-6.921875-101.429688-51.847656-108.351563-108.355469h-132.421875c3.652344 62.777344 29.824219 121.289063 74.65625 166.121094s103.34375 71.003906 166.117188 74.65625zm0 0"/></svg>