<svg class="" viewBox="-117 0 512 512.00107" xmlns="http://www.w3.org/2000/svg"><path d="m199.027344 211.726562v-53.578124h16.554687c14.234375 0 26.722657-8.054688 32.589844-21.027344 5.863281-12.96875 3.671875-27.664063-5.730469-38.355469l-76.15625-86.617187c-6.789062-7.71875-16.578125-12.148438-26.859375-12.148438s-20.070312 4.429688-26.859375 12.148438l-76.164062 86.617187c-9.398438 10.6875-11.59375 25.386719-5.726563 38.355469 5.863281 12.972656 18.351563 21.027344 32.585938 21.027344h16.550781v53.578124c18.578125-6.90625 38.660156-10.6875 59.613281-10.6875 20.949219 0 41.027344 3.78125 59.601563 10.6875zm0 0"/><path d="m278.847656 372.574219c0-76.875-62.542968-139.421875-139.421875-139.421875-76.878906 0-139.425781 62.546875-139.425781 139.421875 0 76.878906 62.546875 139.425781 139.425781 139.425781 76.878907 0 139.421875-62.546875 139.421875-139.425781zm-123.367187 65.695312v13.246094c0 8.867187-7.1875 16.058594-16.054688 16.058594-8.867187 0-16.058593-7.191407-16.058593-16.058594v-9.996094h-11.621094c-8.867188 0-16.058594-7.191406-16.058594-16.058593 0-8.867188 7.191406-16.054688 16.058594-16.054688h27.679687c6.410157 0 11.621094-6.382812 11.621094-14.226562s-5.210937-14.222657-11.621094-14.222657c-24.117187 0-43.738281-20.789062-43.738281-46.339843 0-19.542969 11.488281-36.289063 27.679688-43.085938v-13.246094c0-8.871094 7.191406-16.058594 16.058593-16.058594 8.867188 0 16.054688 7.1875 16.054688 16.058594v9.996094h11.625c8.867187 0 16.054687 7.1875 16.054687 16.058594 0 8.867187-7.1875 16.054687-16.054687 16.054687h-27.679688c-6.410156 0-11.625 6.382813-11.625 14.222657 0 7.84375 5.214844 14.226562 11.625 14.226562 24.117188 0 43.734375 20.785156 43.734375 46.335938 0 19.546874-11.484375 36.292968-27.679687 43.089843zm0 0"/></svg>