<svg class="" viewBox="0 -106 512.00019 512"  xmlns="http://www.w3.org/2000/svg"><path d="m497.328125 7.679688c-10.390625-7.945313-24.28125-9.871094-36.421875-5.089844l-122.480469 39.398437c-.402343.128907-.796875.273438-1.183593.4375-12.292969 5.109375-21 16.492188-22.722657 29.699219-1.71875 13.203125 3.785157 26.433594 14.363281 34.527344l9.601563 7.34375-34.421875 35.886718-98.4375-108.285156c-11.679688-13.792968-28.738281-21.476562-46.894531-21.054687-18.226563.433593-35.003907 9.011719-46.085938 23.601562l-100.503906 133.914063c-9.625 12.675781-13.738281 28.34375-11.582031 44.113281 2.160156 15.773437 10.328125 29.757813 23.007812 39.382813 10.75 8.167968 23.40625 12.109374 35.964844 12.109374 18.011719 0 35.824219-8.113281 47.53125-23.53125.027344-.03125.050781-.066406.078125-.101562l55.886719-74.902344 94.472656 103.71875c11.167969 13.183594 27.464844 20.855469 44.824219 21.0625h.640625c17.066406 0 33.320312-7.324218 44.625-20.101562l86.0625-93.007813 14.664062 11.21875c6.039063 4.617188 13.246094 7.261719 20.839844 7.640625 5.515625.28125 11.136719-.695312 16.242188-2.820312 12.292968-5.113282 21-16.492188 22.71875-29.699219.066406-.511719.105468-1.027344.121093-1.546875l3.554688-130.257812c1.371093-12.910157-4.117188-25.738282-14.464844-33.65625zm0 0"/></svg>