<svg height="512pt" viewBox="0 -21 512 512" width="512pt" xmlns="http://www.w3.org/2000/svg"><path d="m205.464844 98.21875c-.78125 0-1.566406.058594-2.335938.175781-6.472656.984375-12.835937-2.273437-15.832031-8.085937-4.578125-8.882813-13.609375-14.402344-23.578125-14.402344s-19.003906 5.519531-23.582031 14.402344c-2.992188 5.8125-9.367188 9.066406-15.832031 8.085937-.765626-.117187-1.550782-.175781-2.335938-.175781-8.464844 0-15.351562 6.886719-15.351562 15.351562 0 8.464844 6.886718 15.355469 15.351562 15.355469h83.496094c8.464844 0 15.351562-6.890625 15.351562-15.355469 0-8.464843-6.886718-15.351562-15.351562-15.351562zm0 0"/><path d="m360.3125 100.925781c6.613281 0 11.996094-5.378906 11.996094-11.992187 0-6.613282-5.382813-11.996094-11.996094-11.996094s-11.996094 5.382812-11.996094 11.996094c0 6.613281 5.382813 11.992187 11.996094 11.992187zm0 0"/><path d="m445.195312 212.097656-38.777343-38.773437-35.277344 35.277343c-5.953125 5.953126-15.601563 5.953126-21.550781 0l-33.925782-33.921874-37.476562 37.480468c-2.859375 2.855469-6.734375 4.460938-10.777344 4.460938h-267.410156v62.851562c0 8.414063 6.824219 15.234375 15.238281 15.234375h481.523438c8.414062 0 15.238281-6.820312 15.238281-15.234375v-62.910156h-56.03125c-4.039062 0-7.914062-1.605469-10.773438-4.464844zm0 0"/><path d="m304.890625 142.355469c5.949219-5.949219 15.597656-5.949219 21.550781 0l33.921875 33.925781 35.28125-35.28125c5.949219-5.949219 15.597657-5.953125 21.550781 0l45.085938 45.085938h49.71875v-170.847657c0-8.414062-6.824219-15.238281-15.238281-15.238281h-481.523438c-8.414062 0-15.238281 6.824219-15.238281 15.238281v170.910157h261.101562zm55.421875-95.894531c23.417969 0 42.472656 19.050781 42.472656 42.472656 0 23.417968-19.054687 42.46875-42.472656 42.46875s-42.472656-19.050782-42.472656-42.46875c0-23.421875 19.054687-42.472656 42.472656-42.472656zm-154.847656 112.941406h-83.492188c-25.273437 0-45.828125-20.558594-45.828125-45.832032 0-24.0625 18.640625-43.851562 42.238281-45.6875 10.667969-14.046874 27.289063-22.453124 45.335938-22.453124s34.671875 8.40625 45.335938 22.453124c23.597656 1.835938 42.238281 21.625 42.238281 45.6875 0 25.273438-20.558594 45.832032-45.828125 45.832032zm0 0"/><path d="m40.082031 453.914062c0 8.414063 6.820313 15.238282 15.238281 15.238282h48.132813c8.414063 0 15.238281-6.824219 15.238281-15.238282v-128.730468h-78.609375zm0 0"/><path d="m399.410156 453.914062c0 8.414063 6.824219 15.238282 15.238282 15.238282h48.136718c8.414063 0 15.238282-6.824219 15.238282-15.238282v-128.730468h-78.613282zm0 0"/></svg>