<svg height="512pt" viewBox="-96 0 512 512" width="512pt" xmlns="http://www.w3.org/2000/svg"><path d="m319.726562 375.382812v-327.375c0-26.472656-21.539062-48.007812-48.007812-48.007812h-223.710938c-26.472656 0-48.007812 21.535156-48.007812 48.007812v327.375zm-254.015624-224.074218c0-16.675782 13.566406-30.246094 30.246093-30.246094h127.8125c16.679688 0 30.246094 13.570312 30.246094 30.246094v69.449218c0 16.675782-13.566406 30.242188-30.246094 30.242188h-30.871093l-20.722657 27.835938c-2.898437 3.890624-7.460937 6.183593-12.3125 6.183593-4.851562 0-9.417969-2.292969-12.3125-6.183593l-20.722656-27.835938h-30.871094c-16.679687 0-30.246093-13.566406-30.246093-30.242188zm0 0"/><path d="m146.847656 226.484375 13.015625 17.480469 13.011719-17.480469c2.898438-3.890625 7.460938-6.183594 12.3125-6.183594h38.125v-68.535156h-126.898438v68.535156h38.121094c4.851563 0 9.414063 2.292969 12.3125 6.183594zm0 0"/><path d="m0 406.085938v57.90625c0 26.472656 21.535156 48.007812 48.007812 48.007812h223.710938c26.46875 0 48.007812-21.535156 48.007812-48.007812v-57.90625zm195.628906 63.191406h-71.53125c-8.476562 0-15.351562-6.875-15.351562-15.351563 0-8.480469 6.875-15.351562 15.351562-15.351562h71.53125c8.476563 0 15.351563 6.871093 15.351563 15.351562 0 8.476563-6.875 15.351563-15.351563 15.351563zm0 0"/></svg>