<svg height="512pt" viewBox="0 -19 512 512" width="512pt" xmlns="http://www.w3.org/2000/svg"><path d="m512 92.496094v-77.296875c0-8.394531-6.804688-15.199219-15.199219-15.199219h-481.601562c-8.394531 0-15.199219 6.804688-15.199219 15.199219v77.296875zm-42.140625-60.433594c8.519531 0 14.828125 6.964844 15.199219 15.199219.367187 8.207031-7.25 15.199219-15.199219 15.199219-8.519531 0-14.828125-6.964844-15.195313-15.199219-.371093-8.207031 7.246094-15.199219 15.195313-15.199219zm-47.714844 0c8.519531 0 14.828125 6.964844 15.195313 15.199219.367187 8.207031-7.246094 15.199219-15.195313 15.199219-8.523437 0-14.832031-6.964844-15.199219-15.199219-.367187-8.207031 7.25-15.199219 15.199219-15.199219zm-47.71875 0c8.519531 0 14.828125 6.964844 15.199219 15.199219.367188 8.207031-7.25 15.199219-15.199219 15.199219-8.519531 0-14.828125-6.964844-15.199219-15.199219-.367187-8.207031 7.25-15.199219 15.199219-15.199219zm0 0"/><path d="m0 122.890625v336.550781c0 8.390625 6.804688 15.195313 15.199219 15.195313h481.601562c8.394531 0 15.199219-6.804688 15.199219-15.195313v-336.550781zm187.949219 213.085937c5.9375 5.9375 5.9375 15.558594 0 21.496094-2.964844 2.964844-6.855469 4.449219-10.746094 4.449219-3.886719 0-7.777344-1.480469-10.746094-4.449219l-63.15625-63.160156c-5.933593-5.933594-5.933593-15.558594 0-21.492188l63.15625-63.15625c5.9375-5.933593 15.558594-5.933593 21.496094 0 5.933594 5.933594 5.933594 15.558594 0 21.492188l-52.414063 52.410156zm108.574219-109.683593-53.019532 126.3125c-2.441406 5.820312-8.082031 9.320312-14.019531 9.320312-1.960937 0-3.957031-.382812-5.875-1.1875-7.742187-3.25-11.378906-12.15625-8.132813-19.898437l53.023438-126.3125c3.246094-7.742188 12.15625-11.378906 19.894531-8.132813 7.738281 3.25 11.378907 12.160157 8.128907 19.898438zm112.175781 68.019531-63.15625 63.160156c-2.96875 2.964844-6.859375 4.449219-10.746094 4.449219-3.890625 0-7.78125-1.484375-10.746094-4.449219-5.933593-5.9375-5.933593-15.558594 0-21.496094l52.410157-52.410156-52.410157-52.410156c-5.933593-5.933594-5.933593-15.558594 0-21.492188 5.933594-5.9375 15.558594-5.9375 21.492188 0l63.15625 63.15625c5.933593 5.933594 5.933593 15.558594 0 21.492188zm0 0"/></svg>