<svg height="512pt" viewBox="0 -19 512 512" width="512pt" xmlns="http://www.w3.org/2000/svg"><path d="m512 92.496094v-77.296875c0-8.394531-6.804688-15.199219-15.199219-15.199219h-481.601562c-8.394531 0-15.199219 6.804688-15.199219 15.199219v77.296875zm-42.140625-60.433594c8.519531 0 14.828125 6.964844 15.199219 15.199219.367187 8.207031-7.25 15.199219-15.199219 15.199219-8.519531 0-14.828125-6.964844-15.195313-15.199219-.371093-8.207031 7.246094-15.199219 15.195313-15.199219zm-47.714844 0c8.519531 0 14.828125 6.964844 15.195313 15.199219.367187 8.207031-7.246094 15.199219-15.195313 15.199219-8.523437 0-14.832031-6.964844-15.199219-15.199219-.367187-8.207031 7.25-15.199219 15.199219-15.199219zm-47.71875 0c8.519531 0 14.828125 6.964844 15.199219 15.199219.367188 8.207031-7.25 15.199219-15.199219 15.199219-8.519531 0-14.828125-6.964844-15.199219-15.199219-.367187-8.207031 7.25-15.199219 15.199219-15.199219zm0 0"/><path d="m132.628906 358.964844h246.742188v-150.796875h-246.742188zm67.9375-115.503906c0-5.261719 2.722656-10.152344 7.199219-12.921876 4.476563-2.769531 10.066406-3.027343 14.777344-.679687l80.472656 40.105469c5.160156 2.570312 8.417969 7.839844 8.417969 13.601562 0 5.765625-3.257813 11.03125-8.417969 13.601563l-80.472656 40.109375c-2.140625 1.066406-4.460938 1.59375-6.777344 1.59375-2.78125 0-5.554687-.761719-8-2.273438-4.472656-2.769531-7.199219-7.660156-7.199219-12.925781zm0 0"/><path d="m0 122.890625v336.550781c0 8.390625 6.804688 15.195313 15.199219 15.195313h481.601562c8.394531 0 15.199219-6.804688 15.199219-15.195313v-336.550781zm409.769531 251.273437c0 8.390626-6.804687 15.195313-15.199219 15.195313h-277.140624c-8.394532 0-15.199219-6.804687-15.199219-15.195313v-181.191406c0-8.394531 6.804687-15.199218 15.199219-15.199218h277.140624c8.394532 0 15.199219 6.804687 15.199219 15.199218zm0 0"/></svg>