<svg height="512pt" viewBox="0 0 512.00101 512" width="512pt" xmlns="http://www.w3.org/2000/svg"><path d="m255.996094 227.375c17.574218 0 31.867187-14.296875 31.867187-31.871094 0-17.570312-14.292969-31.867187-31.867187-31.867187-17.570313 0-31.867188 14.296875-31.867188 31.867187 0 17.574219 14.296875 31.871094 31.867188 31.871094zm0 0"/><path d="m256 257.824219c-33.953125 0-61.578125 27.625-61.578125 61.574219v28.96875h123.152344v-28.96875c0-33.949219-27.621094-61.574219-61.574219-61.574219zm0 0"/><path d="m436.328125 271.226562c-8.410156 0-15.226563-6.816406-15.226563-15.226562 0-8.40625 6.816407-15.222656 15.226563-15.222656h75.671875c-3.652344-62.777344-29.824219-121.289063-74.65625-166.121094s-103.34375-71.003906-166.121094-74.65625v75.671875c0 8.410156-6.8125 15.226563-15.222656 15.226563s-15.226562-6.816407-15.226562-15.226563v-75.671875c-62.773438 3.652344-121.285157 29.824219-166.117188 74.65625s-71.003906 103.34375-74.65625 166.121094h75.671875c8.40625 0 15.222656 6.816406 15.222656 15.222656 0 8.410156-6.816406 15.226562-15.222656 15.226562h-75.671875c3.652344 62.773438 29.824219 121.285157 74.65625 166.117188s103.34375 71.003906 166.117188 74.65625v-75.671875c0-8.40625 6.816406-15.226563 15.226562-15.226563s15.226562 6.820313 15.226562 15.226563v75.671875c62.773438-3.652344 121.285157-29.820312 166.117188-74.65625 44.832031-44.832031 71.003906-103.34375 74.65625-166.117188zm-257.128906 107.589844c-8.410157 0-15.226563-6.816406-15.226563-15.226562v-44.191406c0-34.558594 19.152344-64.722657 47.398438-80.453126-10.9375-11.234374-17.695313-26.558593-17.695313-43.441406 0-34.359375 27.957031-62.316406 62.320313-62.316406 34.363281 0 62.316406 27.957031 62.316406 62.316406 0 16.882813-6.753906 32.207032-17.691406 43.4375 28.25 15.730469 47.402344 45.898438 47.402344 80.457032v44.191406c0 8.410156-6.816407 15.226562-15.222657 15.226562zm0 0"/></svg>