<svg height="512pt" viewBox="0 -12 512 511" width="512pt" xmlns="http://www.w3.org/2000/svg"><path d="m333.3125 455.746094h-18.867188v-31.773438h-116.890624v31.773438h-18.867188c-8.699219 0-15.75 7.050781-15.75 15.75 0 8.699218 7.050781 15.75 15.75 15.75h154.625c8.699219 0 15.75-7.050782 15.75-15.75 0-8.699219-7.050781-15.75-15.75-15.75zm0 0"/><path d="m478.621094.5h-445.242188c-18.433594 0-33.378906 14.945312-33.378906 33.378906v267.433594h512v-267.433594c0-18.433594-14.945312-33.378906-33.378906-33.378906zm-299.625 159.9375c0 8.699219-7.050782 15.75-15.75 15.75h-11.558594v65.660156c0 8.695313-7.050781 15.75-15.75 15.75s-15.75-7.054687-15.75-15.75v-65.660156h-11.558594c-8.695312 0-15.75-7.050781-15.75-15.75v-54.613281c0-8.699219 7.054688-15.75 15.75-15.75h11.558594v-23.65625c0-8.699219 7.050781-15.75 15.75-15.75s15.75 7.050781 15.75 15.75v23.65625h11.558594c8.699218 0 15.75 7.050781 15.75 15.75zm120.0625 42.003906c0 8.699219-7.050782 15.75-15.75 15.75h-11.5625v23.65625c0 8.695313-7.050782 15.75-15.75 15.75-8.699219 0-15.75-7.054687-15.75-15.75v-23.65625h-11.554688c-8.699218 0-15.75-7.050781-15.75-15.75v-54.617187c0-8.699219 7.050782-15.75 15.75-15.75h11.554688v-65.65625c0-8.699219 7.050781-15.75 15.75-15.75 8.699218 0 15.75 7.050781 15.75 15.75v65.65625h11.5625c8.699218 0 15.75 7.050781 15.75 15.75zm120.058594-42.003906c0 8.699219-7.050782 15.75-15.75 15.75h-11.5625v65.660156c0 8.695313-7.050782 15.75-15.75 15.75-8.699219 0-15.75-7.054687-15.75-15.75v-65.660156h-11.550782c-8.699218 0-15.75-7.050781-15.75-15.75v-54.613281c0-8.699219 7.050782-15.75 15.75-15.75h11.550782v-23.65625c0-8.699219 7.050781-15.75 15.75-15.75 8.699218 0 15.75 7.050781 15.75 15.75v23.65625h11.5625c8.699218 0 15.75 7.050781 15.75 15.75zm0 0"/><path d="m0 359.089844c0 18.4375 14.945312 33.378906 33.378906 33.378906h445.242188c18.433594 0 33.378906-14.941406 33.378906-33.378906v-26.273438h-512zm0 0"/><path d="m124.382812 121.574219h23.113282v23.113281h-23.113282zm0 0"/><path d="m244.441406 163.574219h23.117188v23.117187h-23.117188zm0 0"/><path d="m364.503906 121.574219h23.113282v23.113281h-23.113282zm0 0"/></svg>