<svg height="511pt" viewBox="0 -115 511.99974 511" width="511pt" xmlns="http://www.w3.org/2000/svg"><path d="m261.097656 86.296875c-1.691406-.15625-3.390625-.234375-5.097656-.234375-30.332031 0-55.003906 24.675781-55.003906 55.007812 0 30.328126 24.675781 55.003907 55.003906 55.003907s55.003906-24.675781 55.003906-55.003907c0-1.707031-.078125-3.410156-.234375-5.097656-25.960937-3.058594-46.617187-23.714844-49.671875-49.675781zm0 0"/><path d="m508.480469 131.285156c-1.148438-1.390625-28.613281-34.390625-73.117188-67.703125-26.273437-19.664062-53.085937-35.363281-79.691406-46.660156-17.292969-7.339844-34.53125-12.816406-51.585937-16.421875 58.386718 20.027344 100.472656 75.472656 100.472656 140.570312 0 65.09375-42.085938 120.539063-100.472656 140.566407 17.054687-3.605469 34.292968-9.078125 51.585937-16.421875 26.605469-11.296875 53.417969-26.996094 79.691406-46.660156 44.503907-33.3125 71.96875-66.3125 73.117188-67.703126 4.691406-5.679687 4.691406-13.886718 0-19.566406zm0 0"/><path d="m107.441406 141.070312c0-65.097656 42.085938-120.542968 100.476563-140.570312-17.058594 3.605469-34.292969 9.078125-51.589844 16.421875-26.605469 11.296875-53.417969 26.996094-79.691406 46.660156-44.503907 33.3125-71.96875 66.3125-73.117188 67.703125-4.691406 5.679688-4.691406 13.886719 0 19.566406 1.148438 1.390626 28.613281 34.390626 73.117188 67.703126 26.273437 19.664062 53.085937 35.363281 79.691406 46.660156 17.296875 7.34375 34.53125 12.816406 51.589844 16.421875-58.390625-20.027344-100.476563-75.472657-100.476563-140.566407zm0 0"/><path d="m256 23.230469c-64.976562 0-117.839844 52.863281-117.839844 117.839843 0 64.972657 52.863282 117.835938 117.839844 117.835938s117.839844-52.863281 117.839844-117.835938c0-64.976562-52.863282-117.839843-117.839844-117.839843zm0 203.5625c-47.269531 0-85.722656-38.457031-85.722656-85.722657 0-47.269531 38.453125-85.726562 85.722656-85.726562 8.476562 0 16.875 1.246094 24.960938 3.703125 7.246093 2.203125 11.804687 9.363281 10.738281 16.863281-.179688 1.257813-.273438 2.511719-.273438 3.71875 0 14.34375 11.671875 26.011719 26.011719 26.011719 1.210938 0 2.460938-.089844 3.71875-.269531 7.507812-1.066406 14.660156 3.488281 16.863281 10.738281 2.457031 8.082031 3.703125 16.480469 3.703125 24.957031.003906 47.269532-38.453125 85.726563-85.722656 85.726563zm0 0"/></svg>