<svg height="512pt" viewBox="0 -68 512 511" width="512pt" xmlns="http://www.w3.org/2000/svg"><path d="m256 64.203125c-41.382812 0-75.046875 33.664063-75.046875 75.046875s33.664063 75.046875 75.046875 75.046875 75.046875-33.664063 75.046875-75.046875-33.664063-75.046875-75.046875-75.046875zm.050781 59.714844c17.078125.117187 30.9375 14.710937 30.9375 32.628906 0 12.15625-6.382812 22.777344-15.820312 28.390625v3.800781c0 8.46875-6.863281 15.332031-15.328125 15.332031-8.316406 0-15.070313-6.628906-15.304688-14.890624h-.511718c-8.464844 0-15.328126-6.863282-15.328126-15.328126 0-8.464843 6.863282-15.328124 15.328126-15.328124h15.609374c.222657-.203126.695313-.835938.695313-1.976563 0-1.136719-.472656-1.769531-.699219-1.972656-17.078125-.121094-30.933594-14.714844-30.933594-32.632813 0-12.15625 6.382813-22.773437 15.816407-28.386718v-3.804688c0-8.464844 6.863281-15.328125 15.328125-15.328125 8.320312 0 15.074218 6.628906 15.308594 14.886719h.507812c8.464844 0 15.328125 6.863281 15.328125 15.332031 0 8.464844-6.863281 15.328125-15.328125 15.328125h-15.605469c-.226562.203125-.699219.835938-.699219 1.972656 0 1.140625.476563 1.769532.699219 1.976563zm0 0"/><path d="m488.21875 40.632812c0-22.128906-18.003906-40.132812-40.132812-40.132812h-384.171876c-22.128906 0-40.132812 18.003906-40.132812 40.132812v235.3125h464.4375zm-232.21875 204.320313c-58.285156 0-105.707031-47.417969-105.707031-105.703125 0-58.289062 47.421875-105.707031 105.707031-105.707031s105.707031 47.417969 105.707031 105.707031-47.421875 105.703125-105.707031 105.703125zm0 0"/><path d="m0 306.601562v7.722657c0 33.203125 27.011719 60.210937 60.210938 60.210937h391.578124c33.199219 0 60.210938-27.007812 60.210938-60.210937v-7.722657zm0 0"/></svg>