<svg class="" viewBox="-74 1 511 511.99897"  xmlns="http://www.w3.org/2000/svg"><path d="m182.015625 0c-100.089844 0-181.515625 81.429688-181.515625 181.515625 0 55.261719 28.789062 126.992187 85.570312 213.203125 41.621094 63.1875 82.589844 110.046875 84.3125 112.011719 2.9375 3.347656 7.179688 5.269531 11.632813 5.269531s8.695313-1.921875 11.632813-5.269531c1.722656-1.964844 42.695312-48.824219 84.3125-112.011719 56.78125-86.210938 85.570312-157.941406 85.570312-213.203125.003906-100.085937-81.425781-181.515625-181.515625-181.515625zm-.320313 180.570312c25.964844 0 47.082032 22.453126 47.082032 50.054688 0 21.832031-13.222656 40.433594-31.601563 47.257812v17.0625c0 8.546876-6.929687 15.476563-15.480469 15.476563-8.546874 0-15.476562-6.929687-15.476562-15.476563v-14.269531h-16.125c-8.546875 0-15.476562-6.933593-15.476562-15.480469 0-8.546874 6.929687-15.476562 15.476562-15.476562h31.601562c8.894532 0 16.125-8.566406 16.125-19.09375 0-10.53125-7.234374-19.097656-16.125-19.097656-25.957031 0-47.078124-22.453125-47.078124-50.050782 0-21.832031 13.222656-40.433593 31.601562-47.257812v-17.0625c0-8.546875 6.929688-15.476562 15.476562-15.476562 8.550782 0 15.480469 6.929687 15.480469 15.476562v14.269531h16.125c8.546875 0 15.476563 6.929688 15.476563 15.480469 0 8.546875-6.929688 15.476562-15.476563 15.476562h-31.605469c-8.890624 0-16.121093 8.566407-16.121093 19.09375 0 10.53125 7.230469 19.09375 16.121093 19.09375zm0 0"/></svg>