<svg height="512pt" viewBox="-50 0 512 512" width="512pt" xmlns="http://www.w3.org/2000/svg"><path d="m412.660156 446.148438-35.042968-324.054688c-.867188-7.972656-7.585938-14.007812-15.613282-14.007812h-57.90625v71.382812c0 8.675781-7.035156 15.699219-15.699218 15.699219-8.671876 0-15.695313-7.023438-15.695313-15.699219v-71.382812h-132.390625v71.382812c0 8.675781-7.023438 15.699219-15.699219 15.699219-8.664062 0-15.695312-7.023438-15.695312-15.699219v-71.382812h-57.917969c-8.015625 0-14.746094 6.035156-15.601562 14.007812l-35.054688 324.054688c-1.8125 16.765624 3.609375 33.570312 14.867188 46.117187 11.261718 12.546875 27.394531 19.734375 44.253906 19.734375h294.074218c16.867188 0 32.992188-7.1875 44.253907-19.734375 11.257812-12.546875 16.679687-29.351563 14.867187-46.117187zm-206.316406-142.074219c21.402344 0 38.8125 18.382812 38.8125 40.980469 0 16.703124-9.515625 31.09375-23.117188 37.472656v9.574218c0 8.667969-7.027343 15.699219-15.695312 15.699219s-15.695312-7.03125-15.695312-15.699219v-6.0625h-7.417969c-8.671875 0-15.699219-7.027343-15.699219-15.695312s7.027344-15.695312 15.699219-15.695312h23.113281c4.023438 0 7.417969-4.394532 7.417969-9.59375 0-5.199219-3.394531-9.589844-7.417969-9.589844-21.402344 0-38.8125-18.382813-38.8125-40.984375 0-16.699219 9.515625-31.089844 23.117188-37.46875v-9.578125c0-8.667969 7.027343-15.695313 15.695312-15.695313s15.695312 7.027344 15.695312 15.695313v6.0625h7.421876c8.667968 0 15.695312 7.03125 15.695312 15.699218 0 8.667969-7.027344 15.695313-15.695312 15.695313h-23.117188c-4.019531 0-7.417969 4.390625-7.417969 9.589844s3.394531 9.59375 7.417969 9.59375zm0 0"/><path d="m140.3125 97.589844c0-36.5 29.695312-66.199219 66.195312-66.199219s66.195313 29.699219 66.195313 66.199219v10.496094h31.394531v-10.496094c0-53.808594-43.785156-97.589844-97.589844-97.589844-53.808593 0-97.589843 43.78125-97.589843 97.589844v10.496094h31.394531zm0 0"/></svg>