<svg height="512pt" viewBox="0 -44 512 511" width="512pt" xmlns="http://www.w3.org/2000/svg"><path d="m340.617188 204.101562v12.941407c0 30.59375-24.890626 55.488281-55.488282 55.488281h-58.261718c-30.59375 0-55.488282-24.890625-55.488282-55.488281v-12.941407h-171.378906v167.742188c0 28.140625 22.894531 51.035156 51.035156 51.035156h409.929688c28.140625 0 51.035156-22.894531 51.035156-51.035156v-167.742188zm0 0"/><path d="m201.777344 217.042969c0 13.835937 11.253906 25.089843 25.089844 25.089843h58.261718c13.835938 0 25.09375-11.253906 25.09375-25.089843v-12.941407h-108.445312zm0 0"/><path d="m512 173.707031v-45.136719c0-28.140624-22.894531-51.035156-51.035156-51.035156h-111.617188v-37.90625c0-21.578125-17.550781-39.128906-39.128906-39.128906h-108.4375c-21.578125 0-39.128906 17.550781-39.128906 39.128906v37.90625h-111.617188c-28.140625 0-51.035156 22.894532-51.035156 51.035156v45.132813h512zm-318.953125-134.078125c0-4.816406 3.917969-8.734375 8.734375-8.734375h108.4375c4.816406 0 8.734375 3.917969 8.734375 8.734375v37.90625h-125.90625zm0 0"/></svg>