<svg height="512pt" viewBox="-30 0 512 512" width="512pt" xmlns="http://www.w3.org/2000/svg"><path d="m272.761719 55.269531v-40.210937c0-8.316406-6.742188-15.058594-15.058594-15.058594h-82.371094c-8.316406 0-15.058593 6.742188-15.058593 15.058594v40.210937c18.226562-4.230469 37.066406-6.421875 56.246093-6.421875 19.175781 0 38.015625 2.191406 56.242188 6.421875zm0 0"/><path d="m426.144531 165.394531 22.019531-22.015625c2.824219-2.824218 4.410157-6.652344 4.410157-10.648437 0-3.992188-1.585938-7.824219-4.410157-10.648438l-58.246093-58.242187c-5.878907-5.882813-15.414063-5.882813-21.296875 0l-22.015625 22.015625c15.878906 9.898437 30.75 21.667969 44.308593 35.230469 13.5625 13.5625 25.332032 28.429687 35.230469 44.308593zm0 0"/><path d="m369.617188 142.382812c-40.894532-40.894531-95.265626-63.417968-153.097657-63.417968-57.835937 0-112.210937 22.523437-153.101562 63.417968-40.894531 40.894532-63.417969 95.265626-63.417969 153.101563 0 57.832031 22.523438 112.207031 63.417969 153.097656 40.894531 40.894531 95.265625 63.417969 153.101562 63.417969 57.832031 0 112.207031-22.523438 153.097657-63.417969 40.894531-40.890625 63.417968-95.265625 63.417968-153.097656 0-57.835937-22.523437-112.207031-63.417968-153.101563zm-153.097657 304.960938c-83.738281 0-151.863281-68.121094-151.863281-151.859375s68.125-151.863281 151.863281-151.863281 151.863281 68.125 151.863281 151.863281-68.125 151.859375-151.863281 151.859375zm0 0"/><path d="m216.519531 279.746094c-8.679687 0-15.738281 7.058594-15.738281 15.738281 0 8.675781 7.058594 15.738281 15.738281 15.738281 8.675781 0 15.738281-7.0625 15.738281-15.738281-.003906-8.679687-7.0625-15.738281-15.738281-15.738281zm0 0"/><path d="m216.519531 173.738281c-67.132812 0-121.746093 54.613281-121.746093 121.746094s54.613281 121.746094 121.746093 121.746094c67.128907 0 121.742188-54.613281 121.742188-121.746094s-54.613281-121.746094-121.742188-121.746094zm0 167.601563c-25.285156 0-45.855469-20.570313-45.855469-45.855469 0-20.011719 12.886719-37.058594 30.796876-43.304687v-34.230469c0-8.316407 6.742187-15.0625 15.058593-15.0625 8.316407 0 15.058594 6.746093 15.058594 15.0625v34.230469c17.90625 6.246093 30.796875 23.292968 30.796875 43.304687-.003906 25.285156-20.574219 45.855469-45.855469 45.855469zm0 0"/></svg>