<svg height="512pt" viewBox="-96 0 512 512" width="512pt" xmlns="http://www.w3.org/2000/svg"><path d="m319.726562 375.382812v-327.375c0-26.472656-21.535156-48.007812-48.007812-48.007812h-223.710938c-26.46875 0-48.007812 21.535156-48.007812 48.007812v327.375zm-236.105468-63.429687c-8.605469 0-14.980469-7.035156-15.351563-15.351563-.371093-8.289062 7.320313-15.351562 15.351563-15.351562 8.605468 0 14.976562 7.035156 15.351562 15.351562.371094 8.289063-7.320312 15.351563-15.351562 15.351563zm0-66.238281c-8.605469 0-14.980469-7.03125-15.351563-15.351563-.371093-8.289062 7.320313-15.351562 15.351563-15.351562 8.605468 0 14.976562 7.035156 15.351562 15.351562.371094 8.289063-7.320312 15.351563-15.351562 15.351563zm0-66.238282c-8.605469 0-14.980469-7.03125-15.351563-15.351562-.371093-8.289062 7.320313-15.347656 15.351563-15.347656 8.605468 0 14.976562 7.03125 15.351562 15.347656.371094 8.289062-7.320312 15.351562-15.351562 15.351562zm0-66.238281c-8.605469 0-14.980469-7.03125-15.351563-15.351562-.371093-8.289063 7.320313-15.347657 15.351563-15.347657 8.605468 0 14.976562 7.03125 15.351562 15.347657.371094 8.292969-7.320312 15.351562-15.351562 15.351562zm152.484375 198.714844h-104.386719c-8.476562 0-15.351562-6.875-15.351562-15.351563 0-8.476562 6.875-15.351562 15.351562-15.351562h104.386719c8.476562 0 15.351562 6.875 15.351562 15.351562 0 8.476563-6.871093 15.351563-15.351562 15.351563zm0-66.238281h-104.386719c-8.476562 0-15.351562-6.871094-15.351562-15.351563 0-8.476562 6.875-15.351562 15.351562-15.351562h104.386719c8.476562 0 15.351562 6.875 15.351562 15.351562 0 8.480469-6.871093 15.351563-15.351562 15.351563zm0-66.238282h-104.386719c-8.476562 0-15.351562-6.871093-15.351562-15.351562 0-8.476562 6.875-15.347656 15.351562-15.347656h104.386719c8.476562 0 15.351562 6.871094 15.351562 15.347656 0 8.480469-6.871093 15.351562-15.351562 15.351562zm0-66.238281h-104.386719c-8.476562 0-15.351562-6.871093-15.351562-15.351562 0-8.476563 6.875-15.347657 15.351562-15.347657h104.386719c8.476562 0 15.351562 6.871094 15.351562 15.347657 0 8.480469-6.871093 15.351562-15.351562 15.351562zm0 0"/><path d="m0 406.085938v57.90625c0 26.472656 21.535156 48.007812 48.007812 48.007812h223.710938c26.472656 0 48.007812-21.535156 48.007812-48.007812v-57.90625zm124.097656 36.683593h71.53125c8.476563 0 15.351563 6.871094 15.351563 15.351563 0 8.476562-6.875 15.347656-15.351563 15.347656h-71.53125c-8.476562 0-15.351562-6.871094-15.351562-15.347656 0-8.480469 6.875-15.351563 15.351562-15.351563zm0 0"/></svg>