<svg height="512pt" viewBox="0 0 512 512" width="512pt" xmlns="http://www.w3.org/2000/svg"><path d="m271.027344 118.886719v-16.378907c21.566406-6.476562 37.328125-26.503906 37.328125-50.148437 0-28.871094-23.488281-52.359375-52.359375-52.359375s-52.355469 23.488281-52.355469 52.359375c0 23.648437 15.761719 43.671875 37.328125 50.148437v16.378907c4.9375-.539063 9.953125-.824219 15.03125-.824219 5.078125.003906 10.089844.285156 15.027344.824219zm0 0"/><path d="m363.53125 169.71875 11.609375-11.609375c7.546875 4.078125 16.035156 6.25 24.855469 6.25 13.984375 0 27.132812-5.445313 37.019531-15.335937 9.890625-9.886719 15.335937-23.035157 15.335937-37.023438 0-13.984375-5.445312-27.132812-15.335937-37.019531-20.414063-20.414063-53.628906-20.414063-74.042969 0-9.890625 9.886719-15.335937 23.035156-15.335937 37.019531 0 8.820312 2.171875 17.304688 6.25 24.851562l-11.609375 11.613282c7.832031 6.292968 14.960937 13.421875 21.253906 21.253906zm0 0"/><path d="m459.640625 203.640625c-23.644531 0-43.671875 15.761719-50.148437 37.328125h-16.378907c.539063 4.9375.824219 9.953125.824219 15.03125s-.285156 10.089844-.824219 15.027344h16.378907c6.476562 21.566406 26.503906 37.328125 50.148437 37.328125 28.871094 0 52.359375-23.488281 52.359375-52.359375s-23.488281-52.355469-52.359375-52.355469zm0 0"/><path d="m342.28125 363.53125 11.609375 11.613281c-4.078125 7.542969-6.25 16.03125-6.25 24.851563 0 13.984375 5.445313 27.132812 15.335937 37.019531 9.890626 9.890625 23.039063 15.335937 37.023438 15.335937s27.132812-5.445312 37.023438-15.335937c9.886718-9.886719 15.335937-23.035156 15.335937-37.019531s-5.449219-27.136719-15.335937-37.023438c-16.722657-16.722656-42.027344-19.738281-61.859376-9.066406l-11.628906-11.628906c-6.292968 7.832031-13.421875 14.960937-21.253906 21.253906zm0 0"/><path d="m240.972656 393.113281v16.378907c-21.566406 6.476562-37.328125 26.503906-37.328125 50.148437 0 28.871094 23.488281 52.359375 52.359375 52.359375s52.355469-23.488281 52.355469-52.359375c0-23.648437-15.761719-43.671875-37.328125-50.148437v-16.378907c-4.9375.539063-9.953125.824219-15.03125.824219-5.078125-.003906-10.089844-.285156-15.027344-.824219zm0 0"/><path d="m148.46875 342.28125-11.609375 11.609375c-7.546875-4.078125-16.035156-6.25-24.855469-6.25-13.984375 0-27.132812 5.445313-37.019531 15.335937-9.890625 9.886719-15.335937 23.035157-15.335937 37.023438 0 13.984375 5.445312 27.132812 15.335937 37.019531 10.207031 10.207031 23.613281 15.3125 37.019531 15.3125 13.410156 0 26.816406-5.105469 37.023438-15.3125 9.890625-9.886719 15.335937-23.035156 15.335937-37.019531 0-8.820312-2.171875-17.304688-6.25-24.851562l11.609375-11.613282c-7.832031-6.292968-14.960937-13.421875-21.253906-21.253906zm0 0"/><path d="m118.886719 240.972656h-16.378907c-6.476562-21.566406-26.503906-37.328125-50.148437-37.328125-28.871094 0-52.359375 23.488281-52.359375 52.359375s23.488281 52.355469 52.359375 52.355469c23.644531 0 43.671875-15.761719 50.148437-37.328125h16.378907c-.539063-4.9375-.824219-9.953125-.824219-15.03125s.285156-10.089844.824219-15.027344zm0 0"/><path d="m169.71875 148.46875-11.609375-11.609375c4.078125-7.546875 6.25-16.035156 6.25-24.851563 0-13.988281-5.445313-27.136718-15.335937-37.023437-9.890626-9.890625-23.039063-15.335937-37.023438-15.335937s-27.132812 5.445312-37.023438 15.335937c-9.886718 9.886719-15.335937 23.035156-15.335937 37.023437 0 13.984376 5.449219 27.132813 15.335937 37.019532 10.207032 10.210937 23.617188 15.3125 37.023438 15.3125 8.554688 0 17.109375-2.089844 24.832031-6.246094l11.628907 11.628906c6.296874-7.832031 13.425781-14.960937 21.257812-21.253906zm0 0"/><path d="m365.023438 256c0-60.117188-48.90625-109.023438-109.023438-109.023438s-109.023438 48.90625-109.023438 109.023438 48.90625 109.023438 109.023438 109.023438 109.023438-48.90625 109.023438-109.023438zm-109.023438-14.457031c17.097656 0 31.003906 14.609375 31.003906 32.5625 0 12.476562-6.714844 23.328125-16.546875 28.792969v4.890624c0 7.984376-6.472656 14.457032-14.457031 14.457032s-14.457031-6.472656-14.457031-14.457032v-1.121093h-2.09375c-7.980469 0-14.453125-6.472657-14.453125-14.457031 0-7.984376 6.472656-14.453126 14.453125-14.453126h16.550781c.738281 0 2.09375-1.386718 2.09375-3.652343 0-2.261719-1.355469-3.648438-2.09375-3.648438-17.097656 0-31.003906-14.609375-31.003906-32.5625 0-12.472656 6.714844-23.328125 16.546875-28.792969v-4.890624c0-7.984376 6.472656-14.457032 14.457031-14.457032s14.457031 6.472656 14.457031 14.457032v1.125h2.09375c7.980469 0 14.453125 6.46875 14.453125 14.453124 0 7.984376-6.472656 14.457032-14.453125 14.457032h-16.550781c-.738281 0-2.09375 1.382812-2.09375 3.648437s1.355469 3.648438 2.09375 3.648438zm0 0"/></svg>