<svg height="512pt" viewBox="0 -1 512 512" width="512pt" xmlns="http://www.w3.org/2000/svg"><path d="m195.972656 353.949219c0 2.925781-2.378906 5.304687-5.304687 5.304687h-29.984375v-50.953125l-18.535156-7.011719-93.148438-.058593v193.507812c0 8.65625 7.019531 15.671875 15.671875 15.671875h80.34375c8.652344 0 15.667969-7.015625 15.667969-15.671875v-104.144531h29.984375c20.207031 0 36.644531-16.4375 36.644531-36.644531v-20.4375l-31.339844-11.859375zm0 0"/><path d="m412.46875 0-59.125 22.371094v325.320312l59.125 22.371094zm0 0"/><path d="m322.003906 34.230469-161.316406 61.039062v179.523438l161.316406 61.042969zm0 0"/><path d="m129.347656 100.117188h-78.109375c-28.253906 0-51.238281 22.984374-51.238281 51.238281v67.355469c0 28.25 22.984375 51.238281 51.238281 51.238281h78.109375zm0 0"/><path d="m512 185.03125c0-40.886719-29.417969-75.011719-68.191406-82.371094v164.746094c38.773437-7.363281 68.191406-41.488281 68.191406-82.375zm0 0"/></svg>