<svg height="512pt" viewBox="-32 0 512 512" width="512pt" xmlns="http://www.w3.org/2000/svg"><path d="m208.574219 290.265625v39.496094c-10.730469-7.980469-24.066407-12.402344-39.285157-12.402344h-74.691406c-8.378906 0-15.171875 6.792969-15.171875 15.175781 0 42.949219 34.941407 77.894532 77.894531 77.894532h129.316407c42.949219 0 77.894531-34.945313 77.894531-77.894532 0-8.382812-6.792969-15.175781-15.175781-15.175781h-64.570313c-17.136718 0-32.988281 5.574219-45.863281 14.992187v-42.113281c-5.050781.480469-10.167969.734375-15.34375.734375-5.0625 0-10.0625-.246094-15.003906-.707031zm0 0"/><path d="m208.574219 481.652344h-48.988281c-8.378907 0-15.175782 6.792968-15.175782 15.171875 0 8.382812 6.796875 15.175781 15.175782 15.175781h127.980468c8.382813 0 15.175782-6.792969 15.175782-15.175781 0-8.378907-6.792969-15.171875-15.175782-15.171875h-48.644531v-40.875h-30.347656zm0 0"/><path d="m223.578125 0c-71.855469 0-130.3125 58.457031-130.3125 130.3125 0 71.851562 58.457031 130.308594 130.3125 130.308594 71.851563 0 130.3125-58.457032 130.3125-130.308594 0-71.855469-58.460937-130.3125-130.3125-130.3125zm0 115.136719c19.667969 0 35.671875 16.867187 35.671875 37.597656 0 15.015625-8.398438 27.996094-20.5 34.015625v7.703125c0 8.378906-6.792969 15.171875-15.171875 15.171875-8.382813 0-15.175781-6.792969-15.175781-15.171875v-4.121094h-5.324219c-8.378906 0-15.171875-6.792969-15.171875-15.175781 0-8.378906 6.792969-15.171875 15.171875-15.171875h20.5c2.835937 0 5.320313-3.386719 5.320313-7.25s-2.484376-7.25-5.320313-7.25c-19.671875 0-35.671875-16.867187-35.671875-37.597656 0-15.015625 8.394531-27.996094 20.496094-34.015625v-7.699219c0-8.382813 6.792968-15.175781 15.175781-15.175781 8.378906 0 15.171875 6.792968 15.171875 15.175781v4.117187h5.324219c8.378906 0 15.175781 6.796876 15.175781 15.175782s-6.796875 15.175781-15.175781 15.175781h-20.496094c-2.835937 0-5.324219 3.386719-5.324219 7.246094 0 3.863281 2.488282 7.25 5.324219 7.25zm0 0"/><path d="m373.359375 188.421875c-.582031 6.671875 3.320313 13.167969 9.914063 15.566406l31.367187 11.417969c1.714844.625 3.46875.917969 5.191406.917969 6.195313 0 12.015625-3.824219 14.257813-9.988281 2.867187-7.875-1.195313-16.582032-9.070313-19.449219l-31.367187-11.417969c-6.617188-2.40625-13.808594.085938-17.640625 5.613281-.730469 1.050781-1.351563 2.199219-1.808594 3.457031-.46875 1.285157-.730469 2.585938-.84375 3.882813zm0 0"/><path d="m384.191406 133.835938c1.59375 6.679687 7.582032 11.648437 14.746094 11.648437h33.382812c8.378907 0 15.175782-6.792969 15.175782-15.171875 0-8.382812-6.796875-15.175781-15.175782-15.175781h-33.382812c-7.164062 0-13.152344 4.972656-14.746094 11.648437-.269531 1.132813-.425781 2.308594-.425781 3.527344 0 1.214844.15625 2.390625.425781 3.523438zm0 0"/><path d="m376.019531 79.570312c2.84375 4.082032 7.519531 6.5 12.441407 6.5 1.722656 0 3.476562-.292968 5.191406-.917968l31.367187-11.417969c7.875-2.867187 11.9375-11.574219 9.070313-19.449219-2.867188-7.875-11.574219-11.9375-19.449219-9.070312l-31.371094 11.417968c-6.59375 2.402344-10.492187 8.894532-9.910156 15.566407.113281 1.296875.375 2.601562.84375 3.882812.460937 1.269531 1.082031 2.433594 1.816406 3.488281zm0 0"/><path d="m74.195312 71.175781c.117188-6.300781-3.714843-12.265625-9.972656-14.542969l-31.367187-11.417968c-7.875-2.863282-16.582031 1.195312-19.449219 9.070312s1.191406 16.582032 9.066406 19.449219l31.371094 11.417969c1.710938.625 3.464844.917968 5.1875.917968 4.585938 0 8.957031-2.097656 11.835938-5.683593 1.011718-1.261719 1.839843-2.699219 2.421874-4.304688.59375-1.617187.875-3.273437.90625-4.90625zm0 0"/><path d="m62.988281 125.636719c-1.96875-6.089844-7.683593-10.5-14.429687-10.5h-33.382813c-8.382812 0-15.175781 6.792969-15.175781 15.175781 0 8.378906 6.792969 15.171875 15.175781 15.171875h33.378907c6.75 0 12.460937-4.40625 14.433593-10.5.476563-1.472656.742188-3.039063.742188-4.671875s-.265625-3.203125-.742188-4.675781zm0 0"/><path d="m73.292969 184.539062c-.582031-1.597656-1.414063-3.023437-2.417969-4.28125-3.957031-4.945312-10.753906-7.070312-17.03125-4.789062l-31.367188 11.417969c-7.875 2.867187-11.933593 11.574219-9.070312 19.449219 2.242188 6.164062 8.0625 9.988281 14.261719 9.988281 1.722656 0 3.476562-.292969 5.1875-.917969l31.367187-11.417969c6.257813-2.273437 10.089844-8.238281 9.972656-14.542969-.03125-1.632812-.3125-3.285156-.902343-4.90625zm0 0"/></svg>