<svg height="512pt" viewBox="0 -19 512 512" width="512pt" xmlns="http://www.w3.org/2000/svg"><path d="m512 92.496094v-77.296875c0-8.394531-6.804688-15.199219-15.199219-15.199219h-481.601562c-8.394531 0-15.199219 6.804688-15.199219 15.199219v77.296875zm-42.140625-60.433594c8.519531 0 14.828125 6.964844 15.199219 15.199219.367187 8.207031-7.25 15.199219-15.199219 15.199219-8.519531 0-14.828125-6.964844-15.195313-15.199219-.371093-8.207031 7.246094-15.199219 15.195313-15.199219zm-47.714844 0c8.519531 0 14.828125 6.964844 15.195313 15.199219.367187 8.207031-7.246094 15.199219-15.195313 15.199219-8.523437 0-14.832031-6.964844-15.199219-15.199219-.367187-8.207031 7.25-15.199219 15.199219-15.199219zm-47.71875 0c8.519531 0 14.828125 6.964844 15.199219 15.199219.367188 8.207031-7.25 15.199219-15.199219 15.199219-8.519531 0-14.828125-6.964844-15.199219-15.199219-.367187-8.207031 7.25-15.199219 15.199219-15.199219zm0 0"/><path d="m155.820312 284.582031h37.757813c1.382813-27.359375 6.464844-52.835937 14.683594-72.941406.214843-.535156.4375-1.035156.65625-1.554687-27.9375 14.726562-48.207031 42.121093-53.097657 74.496093zm0 0"/><path d="m193.578125 314.976562h-37.757813c4.890626 32.375 25.15625 59.769532 53.097657 74.496094-.21875-.519531-.441407-1.023437-.660157-1.554687-8.214843-20.105469-13.296874-45.585938-14.679687-72.941407zm0 0"/><path d="m256 198.460938c-4.582031 0-12.671875 7.722656-19.605469 24.675781-6.699219 16.394531-11.042969 38.207031-12.375 61.445312h63.960938c-1.332031-23.238281-5.675781-45.050781-12.375-61.445312-6.933594-16.953125-15.019531-24.675781-19.605469-24.675781zm0 0"/><path d="m303.082031 210.085938c.21875.519531.441407 1.019531.65625 1.550781 8.21875 20.105469 13.300781 45.585937 14.683594 72.941406h37.757813c-4.890626-32.371094-25.160157-59.765625-53.097657-74.492187zm0 0"/><path d="m0 122.890625v336.550781c0 8.390625 6.804688 15.195313 15.199219 15.195313h481.601562c8.394531 0 15.199219-6.804688 15.199219-15.195313v-336.550781zm256 308.601563c-72.628906 0-131.714844-59.085938-131.714844-131.714844s59.085938-131.714844 131.714844-131.714844 131.714844 59.085938 131.714844 131.714844-59.085938 131.714844-131.714844 131.714844zm0 0"/><path d="m236.394531 376.417969c6.933594 16.957031 15.019531 24.679687 19.605469 24.679687s12.675781-7.722656 19.605469-24.679687c6.699219-16.394531 11.042969-38.207031 12.375-61.441407h-63.960938c1.332031 23.234376 5.675781 45.046876 12.375 61.441407zm0 0"/><path d="m303.742188 387.917969c-.21875.53125-.441407 1.035156-.660157 1.550781 27.941407-14.722656 48.207031-42.117188 53.097657-74.492188h-37.757813c-1.382813 27.355469-6.464844 52.835938-14.679687 72.941407zm0 0"/></svg>