<svg height="512pt" viewBox="-41 0 511 512" width="512pt" xmlns="http://www.w3.org/2000/svg"><path d="m262.1875 311.582031h-94.21875v-26.371093h-30.355469v211.609374c0 8.382813 6.796875 15.179688 15.179688 15.179688 8.382812 0 15.175781-6.796875 15.175781-15.179688v-18.539062h94.21875v18.539062c0 8.382813 6.796875 15.179688 15.179688 15.179688 8.378906 0 15.175781-6.796875 15.175781-15.179688v-211.609374h-30.355469zm0 136.34375h-94.21875v-37.816406h94.21875zm0-68.171875h-94.21875v-37.816406h94.21875zm0 0"/><path d="m346.675781 88.894531c-3.320312 0-6.625.195313-9.90625.589844-16.324219-52.679687-65.242187-89.484375-121.691406-89.484375s-105.367187 36.804688-121.691406 89.484375c-3.28125-.394531-6.585938-.589844-9.90625-.589844-45.757813 0-82.980469 37.222657-82.980469 82.980469s37.222656 82.980469 82.980469 82.980469h263.195312c45.757813 0 82.980469-37.222657 82.980469-82.980469s-37.222656-82.980469-82.980469-82.980469zm-131.597656 25.632813c19.675781 0 35.679687 16.871094 35.679687 37.605468 0 15.019532-8.398437 28.003907-20.5 34.027344v7.703125c0 8.378907-6.796874 15.175781-15.179687 15.175781s-15.175781-6.796874-15.175781-15.175781v-4.121093h-5.324219c-8.382813 0-15.179687-6.796876-15.179687-15.179688s6.796874-15.175781 15.179687-15.175781h20.5c2.835937 0 5.324219-3.390625 5.324219-7.253907 0-3.859374-2.488282-7.25-5.324219-7.25-19.671875 0-35.679687-16.871093-35.679687-37.605468 0-15.019532 8.398437-28.003906 20.503906-34.023438v-7.707031c0-8.382813 6.792968-15.175781 15.175781-15.175781s15.179687 6.792968 15.179687 15.175781v4.121094h5.324219c8.382813 0 15.175781 6.796875 15.175781 15.179687 0 8.382813-6.792968 15.175782-15.175781 15.175782h-20.503906c-2.835937 0-5.324219 3.390624-5.324219 7.25 0 3.863281 2.488282 7.253906 5.324219 7.253906zm0 0"/></svg>