<svg height="511pt" viewBox="1 -22 511.99898 511" width="511pt" xmlns="http://www.w3.org/2000/svg"><path d="m107.449219 141.589844h-92.089844c-8.484375 0-15.359375 6.875-15.359375 15.359375v294.496093c0 8.484376 6.875 15.359376 15.359375 15.359376h92.089844zm-69.535157 275.605468v-41.90625c0-8.480468 6.878907-15.355468 15.359376-15.355468 8.480468 0 15.359374 6.875 15.359374 15.355468v41.90625c0 8.480469-6.878906 15.359376-15.359374 15.359376-8.480469 0-15.359376-6.878907-15.359376-15.359376zm0 0"/><path d="m416.589844 141.589844h-83.082032c2.570313-7.5625 5.375-16.640625 7.816407-26.460938 9.257812-37.25 8.648437-66.140625-1.808594-85.875-7.855469-14.824218-21.25-24.382812-38.730469-27.644531-20.15625-3.753906-37.675781 2.023437-52.074218 17.175781-11.308594 11.90625-19.613282 28.164063-28.402344 45.378906-17.367188 34.011719-35.320313 69.171876-78.011719 77.421876h-4.132813v325.21875h278.425782c52.609375 0 95.410156-42.800782 95.410156-95.410157v-134.394531c0-52.609375-42.800781-95.410156-95.410156-95.410156zm0 0"/></svg>