<svg height="512pt" viewBox="-9 0 512 512" width="512pt" xmlns="http://www.w3.org/2000/svg"><path d="m459.253906 398.800781c7.457032-8.992187 11.949219-20.53125 11.949219-33.101562 0-28.636719-23.296875-51.933594-51.933594-51.933594s-51.933593 23.296875-51.933593 51.933594c0 12.570312 4.492187 24.109375 11.953124 33.105469-21.082031 13.3125-35.121093 36.804687-35.121093 63.527343v34.464844c0 8.398437 6.808593 15.203125 15.203125 15.203125h119.800781c8.398437 0 15.203125-6.804688 15.203125-15.203125v-34.464844c0-26.722656-14.039062-50.214843-35.121094-63.53125zm0 0"/><path d="m287.167969 398.800781c7.460937-8.992187 11.949219-20.53125 11.949219-33.101562 0-28.636719-23.296876-51.933594-51.929688-51.933594-28.636719 0-51.933594 23.296875-51.933594 51.933594 0 12.570312 4.492188 24.109375 11.949219 33.105469-21.078125 13.3125-35.117187 36.804687-35.117187 63.527343v34.464844c0 8.398437 6.804687 15.203125 15.199218 15.203125h119.804688c8.394531 0 15.199218-6.804688 15.199218-15.203125v-34.464844c.003907-26.722656-14.039062-50.214843-35.121093-63.53125zm0 0"/><path d="m90.308594 284.792969v-8.558594c0-7.582031 6.167968-13.75 13.75-13.75h127.925781v22.308594c4.929687-.925781 10.007813-1.429688 15.199219-1.429688 5.199218 0 10.273437.503907 15.207031 1.429688v-22.308594h127.925781c7.582032 0 13.75 6.167969 13.75 13.75v8.558594c4.933594-.925781 10.007813-1.429688 15.203125-1.429688 5.195313 0 10.269531.503907 15.203125 1.429688v-8.558594c0-24.347656-19.808594-44.15625-44.15625-44.15625h-127.925781v-20.339844c46.535156-6.683593 83.441406-43.585937 90.125-90.121093h-56.621094c-2.757812 46.378906-18.253906 91.210937-48.699219 91.210937-30.445312 0-45.941406-44.832031-48.699218-91.210937h-56.625c6.6875 46.53125 43.585937 83.429687 90.117187 90.117187v20.34375h-127.925781c-24.351562 0-44.15625 19.808594-44.15625 44.15625v8.558594c4.925781-.925781 10.003906-1.429688 15.195312-1.429688 5.195313 0 10.273438.503907 15.207032 1.429688zm0 0"/><path d="m115.085938 398.800781c7.457031-8.992187 11.949218-20.53125 11.949218-33.101562 0-28.636719-23.296875-51.933594-51.933594-51.933594-28.636718 0-51.933593 23.296875-51.933593 51.933594 0 12.570312 4.492187 24.109375 11.953125 33.105469-21.082032 13.3125-35.121094 36.804687-35.121094 63.527343v34.464844c0 8.398437 6.804688 15.203125 15.203125 15.203125h119.800781c8.394532 0 15.203125-6.804688 15.203125-15.203125v-34.464844c0-26.722656-14.039062-50.214843-35.121093-63.53125zm0 0"/><path d="m247.195312 182.199219c5.175782-3.265625 15.863282-23.761719 18.257813-60.585938h-36.519531c2.398437 36.824219 13.085937 57.320313 18.261718 60.585938zm0 0"/><path d="m247.195312 30.628906c-5.175781 3.261719-15.863281 23.761719-18.261718 60.582032h36.519531c-2.394531-36.820313-13.082031-57.320313-18.257813-60.582032zm0 0"/><path d="m295.894531 91.210938h56.621094c-7.398437-51.5-51.804687-91.210938-105.320313-91.210938 30.445313 0 45.941407 44.832031 48.699219 91.210938zm0 0"/><path d="m198.496094 91.210938c2.757812-46.378907 18.253906-91.210938 48.699218-91.210938-53.515624 0-97.925781 39.710938-105.324218 91.210938zm0 0"/></svg>