<svg height="512pt" viewBox="0 -1 512 512.00066" width="512pt" xmlns="http://www.w3.org/2000/svg"><path d="m279.132812 156.773438c-9.417968-25.980469-19.265624-32.84375-23.15625-32.84375-3.890624 0-13.738281 6.863281-23.15625 32.84375-8.164062 22.53125-13.171874 51.691406-14.429687 83.359374h75.171875c-1.257812-31.667968-6.265625-60.828124-14.429688-83.359374zm0 0"/><path d="m232.820312 355.222656c9.417969 25.980469 19.265626 32.847656 23.15625 32.847656 3.890626 0 13.738282-6.867187 23.15625-32.847656 8.164063-22.527344 13.171876-51.6875 14.429688-83.355468h-75.171875c1.257813 31.667968 6.265625 60.828124 14.429687 83.355468zm0 0"/><path d="m325.316406 240.132812h90.214844c-7.363281-74.589843-66.050781-134.320312-140.164062-143.296874 30.542968 18.257812 47.535156 79.417968 49.949218 143.296874zm0 0"/><path d="m186.636719 271.867188h-90.214844c7.363281 74.589843 66.050781 134.320312 140.164063 143.296874-30.542969-18.253906-47.535157-79.417968-49.949219-143.296874zm0 0"/><path d="m325.316406 271.867188c-2.414062 63.875-19.40625 125.042968-49.949218 143.296874 74.113281-8.976562 132.800781-68.707031 140.164062-143.296874zm0 0"/><path d="m186.636719 240.132812c2.414062-63.878906 19.40625-125.042968 49.949219-143.296874-74.113282 8.976562-132.800782 68.707031-140.164063 143.296874zm0 0"/><path d="m51.921875 348.984375c-37.566406-82.675781-22.414063-183.648437 45.488281-251.550781 61.953125-61.949219 155.042969-82.171875 237.152344-51.519532 8.207031 3.066407 17.347656-1.105468 20.414062-9.316406 3.0625-8.207031-1.105468-17.347656-9.316406-20.410156-45.371094-16.9375-94.476562-20.671875-142.011718-10.785156-48.792969 10.144531-93.289063 34.207031-128.675782 69.59375-48.347656 48.347656-74.972656 112.628906-74.972656 181.003906 0 39.324219 8.824219 77.285156 25.503906 111.648438 7.476563-7.8125 16.429688-14.183594 26.417969-18.664063zm0 0"/><path d="m460.03125 163.015625c37.566406 82.675781 22.410156 183.648437-45.488281 251.550781-61.953125 61.949219-155.042969 82.171875-237.152344 51.519532-8.207031-3.066407-17.347656 1.105468-20.414063 9.316406-3.0625 8.207031 1.105469 17.347656 9.316407 20.414062 45.371093 16.9375 94.476562 20.667969 142.011719 10.78125 48.792968-10.140625 93.289062-34.207031 128.671874-69.59375 48.347657-48.347656 74.976563-112.628906 74.976563-181.003906 0-39.324219-8.824219-77.285156-25.507813-111.648438-7.472656 7.8125-16.425781 14.183594-26.414062 18.664063zm0 0"/><path d="m478.132812 86.214844c0-28.878906-23.496093-52.371094-52.375-52.371094-28.878906 0-52.371093 23.492188-52.371093 52.371094s23.492187 52.375 52.371093 52.375c28.878907 0 52.375-23.496094 52.375-52.375zm0 0"/><path d="m86.234375 373.371094c-28.878906 0-52.375 23.496094-52.375 52.375 0 13.988281 5.449219 27.140625 15.339844 37.03125s23.042969 15.339844 37.035156 15.339844c28.878906 0 52.371094-23.492188 52.371094-52.371094s-23.496094-52.375-52.371094-52.375zm0 0"/></svg>