<svg height="512pt" viewBox="0 -3 512 512" width="512pt" xmlns="http://www.w3.org/2000/svg"><path d="m496.65625 315.722656h-124.632812v191.0625h124.632812c8.472656 0 15.34375-6.871094 15.34375-15.347656v-160.367188c0-8.476562-6.871094-15.347656-15.34375-15.347656zm0 0"/><path d="m15.34375 362.507812c-8.472656 0-15.34375 6.871094-15.34375 15.347657v113.582031c0 8.476562 6.871094 15.34375 15.34375 15.34375h126.164062v-144.273438zm0 0"/><path d="m341.332031 250.503906c0-8.472656-6.867187-15.34375-15.34375-15.34375h-139.976562c-6.089844 0-11.335938 3.554688-13.8125 8.695313v262.929687h169.132812zm0 0"/><path d="m256 138.90625h-26.125c-8.472656 0-15.34375 6.871094-15.34375 15.347656 0 8.472656 6.871094 15.34375 15.34375 15.34375h10.78125v9.246094c0 8.472656 6.871094 15.34375 15.34375 15.34375s15.34375-6.871094 15.34375-15.34375v-12.375c15.292969-6.476562 26.125-22.316406 26.125-40.796875 0-24.21875-18.601562-43.921875-41.46875-43.921875-5.945312 0-10.78125-5.9375-10.78125-13.234375s4.835938-13.234375 10.78125-13.234375h26.125c8.472656 0 15.34375-6.871094 15.34375-15.347656 0-8.472656-6.871094-15.34375-15.34375-15.34375h-10.78125v-9.246094c0-8.472656-6.871094-15.34375-15.34375-15.34375s-15.34375 6.871094-15.34375 15.34375v12.378906c-15.292969 6.472656-26.125 22.3125-26.125 40.792969 0 24.21875 18.601562 43.921875 41.46875 43.921875 5.945312 0 10.78125 5.9375 10.78125 13.234375 0 7.300781-4.835938 13.234375-10.78125 13.234375zm0 0"/></svg>