<svg height="512pt" viewBox="0 -22 512.00001 512" width="512pt" xmlns="http://www.w3.org/2000/svg"><path d="m343.769531 0h-219.496093v108.851562c0 8.515626-6.90625 15.421876-15.421876 15.421876h-108.851562v327.359374c0 8.519532 6.90625 15.421876 15.421875 15.421876h328.347656c8.519531 0 15.421875-6.902344 15.421875-15.421876v-436.210937c0-8.515625-6.902344-15.421875-15.421875-15.421875zm-115 381.398438h-149.898437c-8.515625 0-15.421875-6.902344-15.421875-15.421876 0-8.515624 6.90625-15.421874 15.421875-15.421874h149.898437c8.515625 0 15.421875 6.90625 15.421875 15.421874 0 8.519532-6.90625 15.421876-15.421875 15.421876zm49.964844-54.351563h-199.863281c-8.515625 0-15.421875-6.902344-15.421875-15.421875 0-8.515625 6.90625-15.421875 15.421875-15.421875h199.863281c8.515625 0 15.421875 6.90625 15.421875 15.421875 0 8.519531-6.902344 15.421875-15.421875 15.421875zm0-54.351563h-199.863281c-8.515625 0-15.421875-6.90625-15.421875-15.421874 0-8.515626 6.90625-15.421876 15.421875-15.421876h199.863281c8.515625 0 15.421875 6.90625 15.421875 15.421876 0 8.515624-6.902344 15.421874-15.421875 15.421874zm0-54.351562h-199.863281c-8.515625 0-15.421875-6.90625-15.421875-15.421875 0-8.519531 6.90625-15.421875 15.421875-15.421875h199.863281c8.515625 0 15.421875 6.902344 15.421875 15.421875 0 8.515625-6.902344 15.421875-15.421875 15.421875zm15.421875-72.636719c0 8.515625-6.902344 15.421875-15.421875 15.421875h-99.929687c-8.519532 0-15.421876-6.90625-15.421876-15.421875v-56.261719c0-8.515624 6.902344-15.421874 15.421876-15.421874h99.929687c8.519531 0 15.421875 6.90625 15.421875 15.421874zm0 0"/><path d="m9.035156 93.429688h84.394532v-84.394532zm0 0"/><path d="m194.226562 104.867188h69.085938v25.417968h-69.085938zm0 0"/><path d="m392.328125 430.28125c0 20.277344 16.496094 36.773438 36.777344 36.773438h46.117187c20.277344 0 36.777344-16.496094 36.777344-36.773438v-25.085938h-119.671875zm0 0"/><path d="m392.328125 104.867188h119.671875v269.480468h-119.671875zm0 0"/><path d="m465.386719 7.488281c-2.785157-4.644531-7.804688-7.488281-13.222657-7.488281-5.417968 0-10.4375 2.84375-13.222656 7.488281l-39.921875 66.539063h106.292969zm0 0"/></svg>