<svg height="511pt" viewBox="0 0 511 511.99995" width="511pt" xmlns="http://www.w3.org/2000/svg"><path d="m507.9375 223.082031c3.007812-3.003906 4.652344-7.109375 4.558594-11.359375l-4.347656-192.15625c-.1875-8.324218-6.886719-15.023437-15.210938-15.210937l-192.164062-4.35156275c-4.234376-.09765625-8.351563 1.55078175-11.359376 4.55468775l-42.019531 42.023437 218.523438 218.523438zm-90.988281-94.472656c-18.566407 0-33.621094-15.050781-33.621094-33.621094 0-18.566406 15.054687-33.621093 33.621094-33.621093 18.570312 0 33.621093 15.054687 33.621093 33.621093 0 18.570313-15.050781 33.621094-33.621093 33.621094zm0 0"/><path d="m67.328125 226.644531 218.523437 218.523438 158.050782-158.046875-218.523438-218.527344zm178.871094-16.195312c12.144531-12.144531 29.578125-15.621094 44.042969-10.203125l7.3125-7.3125c6.078124-6.078125 15.9375-6.078125 22.015624 0 6.078126 6.082031 6.078126 15.9375 0 22.015625l-4.917968 4.917969 5.910156 5.914062c6.078125 6.078125 6.078125 15.933594 0 22.015625-6.078125 6.078125-15.9375 6.078125-22.015625 0l-16.917969-16.921875c-3.203125-3.203125-9.34375-2.476562-13.414062 1.589844-4.0625 4.066406-4.792969 10.207031-1.585938 13.414062 7.644532 7.644532 11.582032 17.976563 11.085938 29.089844-.476563 10.582031-4.976563 20.652344-12.679688 28.351562-8.429687 8.433594-19.414062 12.6875-30.179687 12.6875-4.742188 0-9.433594-.832031-13.855469-2.488281l-7.316406 7.316407c-3.039063 3.039062-7.023438 4.5625-11.007813 4.5625s-7.96875-1.519532-11.007812-4.5625c-6.078125-6.078126-6.078125-15.933594 0-22.015626l4.917969-4.917968-5.910157-5.910156c-6.078125-6.078126-6.078125-15.9375 0-22.015626 6.078125-6.078124 15.9375-6.078124 22.015625 0l16.917969 16.917969c1.78125 1.785157 4.074219 2.066407 5.679687 2 2.796876-.125 5.542969-1.402343 7.734376-3.589843 2.1875-2.1875 3.460937-4.933594 3.585937-7.730469.074219-1.605469-.214844-3.898438-1.996094-5.679688-15.402343-15.398437-14.6875-41.167969 1.585938-57.445312zm0 0"/><path d="m5.058594 288.914062c-6.078125 6.078126-6.078125 15.9375 0 22.015626l196.511718 196.511718c2.917969 2.917969 6.878907 4.558594 11.003907 4.558594 4.128906 0 8.089843-1.640625 11.007812-4.558594l40.253907-40.257812-218.523438-218.523438zm0 0"/></svg>