<svg height="511pt" viewBox="-73 1 511 511.99896" width="511pt" xmlns="http://www.w3.org/2000/svg"><path d="m163.445312 380.1875h38.410157v38.410156h-38.410157zm0 0"/><path d="m93.902344 241.097656h38.410156v38.410156h-38.410156zm0 0"/><path d="m93.902344 310.640625h38.410156v38.410156h-38.410156zm0 0"/><path d="m93.902344 380.1875h38.410156v38.410156h-38.410156zm0 0"/><path d="m316.214844 0h-267.125c-26.792969 0-48.589844 21.796875-48.589844 48.589844v414.820312c0 26.789063 21.796875 48.589844 48.589844 48.589844h267.125c26.789062 0 48.585937-21.800781 48.585937-48.589844v-414.820312c0-26.792969-21.796875-48.589844-48.585937-48.589844zm-13.679688 434.164062c0 8.597657-6.972656 15.566407-15.566406 15.566407h-208.632812c-8.597657 0-15.566407-6.96875-15.566407-15.566407v-208.632812c0-8.597656 6.96875-15.566406 15.566407-15.566406h208.632812c8.597656 0 15.566406 6.96875 15.566406 15.566406zm0-268.917968c0 8.597656-6.972656 15.566406-15.566406 15.566406h-208.632812c-8.597657 0-15.566407-6.96875-15.566407-15.566406v-87.410156c0-8.597657 6.96875-15.566407 15.566407-15.566407h208.632812c8.597656 0 15.566406 6.96875 15.566406 15.566407zm0 0"/><path d="m163.445312 241.097656h38.410157v38.410156h-38.410157zm0 0"/><path d="m163.445312 310.640625h38.410157v38.410156h-38.410157zm0 0"/><path d="m232.992188 364.621094v53.976562h38.40625v-107.957031h-38.40625zm0 0"/><path d="m232.992188 241.097656h38.410156v38.410156h-38.410156zm0 0"/><path d="m93.902344 93.402344h177.5v56.277344h-177.5zm0 0"/></svg>