<svg height="511pt" viewBox="1 -22 511.99824 511" width="511pt" xmlns="http://www.w3.org/2000/svg"><path d="m507.589844 96.707031-33.894532-33.894531-68.550781 68.550781 33.890625 33.894531c2.941406 2.941407 6.796875 4.410157 10.648438 4.410157 3.855468 0 7.710937-1.46875 10.648437-4.410157l47.253907-47.253906c2.824218-2.824218 4.414062-6.65625 4.414062-10.648437 0-3.992188-1.585938-7.824219-4.410156-10.648438zm0 0"/><path d="m390.492188 146.015625-68.550782 68.550781 33.894532 33.894532c2.941406 2.9375 6.792968 4.410156 10.648437 4.410156 3.851563 0 7.707031-1.472656 10.648437-4.414063l47.25-47.253906c2.824219-2.824219 4.414063-6.65625 4.414063-10.648437 0-3.992188-1.585937-7.824219-4.414063-10.648438zm0 0"/><path d="m261.613281 232.300781 190.785157-190.785156-36.605469-36.605469c-5.882813-5.882812-15.417969-5.882812-21.296875 0l-184.550782 184.550782c14.335938 7.578124 27.617188 17.34375 39.414063 29.140624 4.367187 4.367188 8.449219 8.945313 12.253906 13.699219zm0 0"/><path d="m133.5625 200.75c-35.683594 0-69.242188 13.902344-94.484375 39.148438-52.105469 52.101562-52.105469 136.882812 0 188.984374 25.203125 25.203126 58.761719 39.085938 94.484375 39.085938 35.734375 0 69.292969-13.878906 94.5-39.085938 25.238281-25.238281 39.136719-58.796874 39.136719-94.496093 0-35.707031-13.902344-69.261719-39.136719-94.488281-25.246094-25.246094-58.804688-39.148438-94.5-39.148438zm.035156 182.71875c-27.121094 0-49.105468-21.988281-49.105468-49.109375s21.984374-49.109375 49.105468-49.109375c27.125 0 49.109375 21.988281 49.109375 49.109375s-21.984375 49.109375-49.109375 49.109375zm0 0"/></svg>