<svg height="512pt" viewBox="0 0 512 512.001" width="512pt" xmlns="http://www.w3.org/2000/svg"><path d="m252.355469 112.75c-19.257813-19.257812-44.550781-28.886719-69.84375-28.886719-25.296875 0-50.589844 9.628907-69.847657 28.886719-18.65625 18.65625-28.933593 43.460938-28.933593 69.84375 0 26.386719 10.277343 51.191406 28.933593 69.847656 38.511719 38.511719 101.179688 38.515625 139.691407 0s38.511719-101.179687 0-139.691406zm0 0"/><path d="m495.96875 419.0625-75.894531-75.898438c-17.558594-17.558593-44.222657-20.578124-64.929688-9.085937l-33.375-33.378906c28.042969-32.953125 43.335938-74.351563 43.335938-118.105469 0-48.773438-18.992188-94.625-53.480469-129.113281s-80.34375-53.480469-129.117188-53.480469c-48.773437 0-94.625 18.992188-129.113281 53.480469-71.191406 71.195312-71.191406 187.035156 0 258.226562 35.597657 35.597657 82.355469 53.398438 129.113281 53.398438 42.082032 0 84.160157-14.425781 118.105469-43.253907l33.378907 33.378907c-11.492188 20.707031-8.472657 47.367187 9.085937 64.925781l75.898437 75.898438c10.285157 10.285156 23.953126 15.949218 38.496094 15.945312 14.542969 0 28.214844-5.660156 38.496094-15.945312 21.226562-21.226563 21.226562-55.765626 0-76.992188zm-313.460938-107.835938c-32.953124 0-65.910156-12.546874-90.996093-37.632812-24.308594-24.304688-37.695313-56.625-37.695313-91 0-34.371094 13.386719-66.691406 37.695313-90.996094 50.175781-50.179687 131.820312-50.175781 181.996093 0 50.175782 50.175782 50.175782 131.820313 0 181.996094-25.085937 25.089844-58.042968 37.632812-91 37.632812zm0 0"/></svg>