<svg height="512pt" viewBox="-68 0 512 512.00103" width="512pt" xmlns="http://www.w3.org/2000/svg"><path d="m317.867188 325.039062c18.375-17.414062 32.832031-37.945312 42.972656-61.027343 10.503906-23.90625 15.828125-49.367188 15.828125-75.679688 0-49.90625-19.324219-96.933593-54.410157-132.417969-35.058593-35.453124-81.808593-55.304687-131.632812-55.9023432-.761719-.00781255-1.515625-.0117188-2.277344-.0117188-102.441406 0-186.710937 82.664062-188.3242185 185.308594-.4179685 26.738281 4.6523435 52.65625 15.0820315 77.03125 10.058593 23.507812 24.566406 44.417968 43.128906 62.15625 15.90625 15.199218 26.265625 35.117187 29.53125 56.164062h201.117187c3.191407-21.089844 13.363282-40.820312 28.984376-55.621094zm-129.53125-141.328124c27.21875 0 49.363281 23.578124 49.363281 52.558593 0 23.265625-14.273438 43.035157-33.984375 49.933594v19.238281c0 8.492188-6.886719 15.378906-15.378906 15.378906-8.496094 0-15.378907-6.886718-15.378907-15.378906v-16.613281h-18.605469c-8.496093 0-15.382812-6.882813-15.382812-15.378906 0-8.492188 6.886719-15.378907 15.382812-15.378907h33.984376c10.257812 0 18.605468-9.777343 18.605468-21.800781 0-12.019531-8.347656-21.796875-18.605468-21.796875-27.222657 0-49.367188-23.578125-49.367188-52.558594 0-23.261718 14.277344-43.03125 33.988281-49.929687v-19.238281c0-8.492188 6.882813-15.378906 15.378907-15.378906 8.492187 0 15.378906 6.886718 15.378906 15.378906v16.609375h18.605468c8.492188 0 15.378907 6.886719 15.378907 15.382812 0 8.492188-6.886719 15.378907-15.378907 15.378907h-33.984374c-10.261719 0-18.605469 9.777343-18.605469 21.796874 0 12.019532 8.34375 21.796876 18.605469 21.796876zm0 0"/><path d="m88.875 411.421875v27.945313c0 40.050781 32.585938 72.632812 72.636719 72.632812h53.652343c40.050782 0 72.636719-32.582031 72.636719-72.632812v-27.945313zm0 0"/></svg>