<svg height="512pt" viewBox="-51 0 512 512" width="512pt" xmlns="http://www.w3.org/2000/svg"><path d="m247.683594 156.988281c-6.9375-7.421875-12.878906-15.785156-17.605469-24.878906l-67.796875 47.839844c6.941406 7.421875 12.878906 15.785156 17.601562 24.878906zm0 0"/><path d="m179.886719 307.171875c-4.722657 9.09375-10.664063 17.457031-17.605469 24.878906l67.800781 47.839844c4.722657-9.09375 10.664063-17.457031 17.605469-24.878906zm0 0"/><path d="m329.027344 161.875c44.628906 0 80.9375-36.308594 80.9375-80.9375s-36.308594-80.9375-80.9375-80.9375-80.9375 36.308594-80.9375 80.9375 36.308594 80.9375 80.9375 80.9375zm0 0"/><path d="m161.875 256c0-44.628906-36.308594-80.9375-80.9375-80.9375s-80.9375 36.308594-80.9375 80.9375 36.308594 80.9375 80.9375 80.9375 80.9375-36.308594 80.9375-80.9375zm0 0"/><path d="m329.027344 350.125c-44.628906 0-80.9375 36.308594-80.9375 80.9375s36.308594 80.9375 80.9375 80.9375 80.9375-36.308594 80.9375-80.9375-36.308594-80.9375-80.9375-80.9375zm0 0"/></svg>