<svg height="512pt" viewBox="0 -54 512 511" width="512pt" xmlns="http://www.w3.org/2000/svg"><path d="m155.867188 165.832031c0-8.835937-7.164063-16-16-16h-97.59375c-8.835938 0-16 7.164063-16 16v172.785157h129.59375zm0 0"/><path d="m320.800781 91.164062c0-8.835937-7.164062-16-16-16h-97.59375c-8.835937 0-16 7.164063-16 16v247.453126h129.59375zm0 0"/><path d="m485.730469 16.5c0-8.835938-7.164063-16-16-16h-97.59375c-8.835938 0-15.996094 7.164062-15.996094 16v322.117188h129.589844zm0 0"/><path d="m496 370.617188h-480c-8.835938 0-16 7.164062-16 16 0 8.835937 7.164062 16 16 16h480c8.835938 0 16-7.164063 16-16 0-8.835938-7.164062-16-16-16zm0 0"/></svg>