<svg height="512pt" viewBox="0 -29 512 512" width="512pt" xmlns="http://www.w3.org/2000/svg"><path d="m0 167.269531v243.574219c0 24.25 19.730469 43.980469 43.980469 43.980469h424.039062c24.25 0 43.980469-19.730469 43.980469-43.980469v-243.574219zm154.9375 216.546875h-59.382812c-8.46875 0-15.332032-6.863281-15.332032-15.328125 0-8.464843 6.863282-15.328125 15.332032-15.328125h59.382812c8.46875 0 15.332031 6.863282 15.332031 15.328125 0 8.464844-6.863281 15.328125-15.332031 15.328125zm0-68.683594h-59.382812c-8.46875 0-15.332032-6.863281-15.332032-15.328124 0-8.464844 6.863282-15.328126 15.332032-15.328126h59.382812c8.46875 0 15.332031 6.863282 15.332031 15.328126 0 8.464843-6.863281 15.328124-15.332031 15.328124zm0-68.683593h-59.382812c-8.46875 0-15.332032-6.863281-15.332032-15.328125s6.863282-15.328125 15.332032-15.328125h59.382812c8.46875 0 15.332031 6.863281 15.332031 15.328125s-6.863281 15.328125-15.332031 15.328125zm130.230469 137.367187h-59.386719c-8.464844 0-15.328125-6.863281-15.328125-15.328125 0-8.464843 6.863281-15.328125 15.328125-15.328125h59.386719c8.464843 0 15.328125 6.863282 15.328125 15.328125 0 8.464844-6.863282 15.328125-15.328125 15.328125zm0-68.683594h-59.386719c-8.464844 0-15.328125-6.863281-15.328125-15.328124 0-8.464844 6.863281-15.328126 15.328125-15.328126h59.386719c8.464843 0 15.328125 6.863282 15.328125 15.328126 0 8.464843-6.863282 15.328124-15.328125 15.328124zm0-68.683593h-59.386719c-8.464844 0-15.328125-6.863281-15.328125-15.328125s6.863281-15.328125 15.328125-15.328125h59.386719c8.464843 0 15.328125 6.863281 15.328125 15.328125s-6.863282 15.328125-15.328125 15.328125zm130.230469 137.367187h-59.382813c-8.46875 0-15.332031-6.863281-15.332031-15.328125 0-8.464843 6.863281-15.328125 15.332031-15.328125h59.382813c8.46875 0 15.332031 6.863282 15.332031 15.328125 0 8.464844-6.863281 15.328125-15.332031 15.328125zm0-68.683594h-59.382813c-8.46875 0-15.332031-6.863281-15.332031-15.328124 0-8.464844 6.863281-15.328126 15.332031-15.328126h59.382813c8.46875 0 15.332031 6.863282 15.332031 15.328126 0 8.464843-6.863281 15.328124-15.332031 15.328124zm0-68.683593h-59.382813c-8.46875 0-15.332031-6.863281-15.332031-15.328125s6.863281-15.328125 15.332031-15.328125h59.382813c8.46875 0 15.332031 6.863281 15.332031 15.328125s-6.863281 15.328125-15.332031 15.328125zm0 0"/><path d="m512 136.609375v-50.828125c0-24.25-19.730469-43.980469-43.980469-43.980469h-57.164062v32.914063c0 25.359375-20.628907 45.988281-45.988281 45.988281-25.355469 0-45.988282-20.628906-45.988282-45.988281v-32.914063h-131.292968v32.914063c0 25.359375-20.632813 45.988281-45.988282 45.988281-25.359375 0-45.988281-20.628906-45.988281-45.988281v-32.914063h-51.628906c-24.25 0-43.980469 19.730469-43.980469 43.980469v50.828125zm0 0"/><path d="m126.269531 74.714844c0 8.464844 6.863281 15.328125 15.328125 15.328125s15.328125-6.863281 15.328125-15.328125v-59.386719c0-8.464844-6.863281-15.328125-15.328125-15.328125s-15.328125 6.863281-15.328125 15.328125zm0 0"/><path d="m349.539062 74.714844c0 8.464844 6.863282 15.328125 15.328126 15.328125 8.464843 0 15.332031-6.863281 15.332031-15.328125v-59.386719c0-8.464844-6.867188-15.328125-15.332031-15.328125-8.464844 0-15.328126 6.863281-15.328126 15.328125zm0 0"/></svg>