<svg height="512pt" viewBox="0 0 512 512" width="512pt" xmlns="http://www.w3.org/2000/svg"><path d="m256 154.363281c-56.042969 0-101.636719 45.59375-101.636719 101.636719s45.59375 101.636719 101.636719 101.636719 101.636719-45.59375 101.636719-101.636719-45.59375-101.636719-101.636719-101.636719zm0 160.425781c-32.464844 0-58.789062-26.324218-58.789062-58.789062s26.324218-58.789062 58.789062-58.789062 58.789062 26.324218 58.789062 58.789062-26.324218 58.789062-58.789062 58.789062zm0 0"/><path d="m496.386719 195.628906h-37.90625c-4.136719-13.898437-9.699219-27.316406-16.632813-40.101562l26.824219-26.816406c2.929687-2.929688 4.574219-6.898438 4.574219-11.039063 0-4.144531-1.644532-8.113281-4.570313-11.042969l-63.304687-63.304687c-2.929688-2.925781-6.902344-4.574219-11.042969-4.574219s-8.109375 1.648438-11.039063 4.574219l-26.816406 26.824219c-12.78125-6.929688-26.203125-12.492188-40.101562-16.628907v-37.90625c0-8.621093-6.992188-15.613281-15.613282-15.613281h-89.515624c-8.621094 0-15.613282 6.992188-15.613282 15.613281v37.90625c-13.898437 4.136719-27.320312 9.699219-40.101562 16.632813l-26.816406-26.824219c-2.929688-2.929687-6.898438-4.574219-11.039063-4.574219h-.003906c-4.140625 0-8.109375 1.644532-11.039063 4.570313l-63.304687 63.308593c-2.925781 2.925782-4.570313 6.898438-4.570313 11.039063s1.644532 8.113281 4.574219 11.039063l26.824219 26.816406c-6.929688 12.785156-12.496094 26.203125-16.632813 40.105468h-37.90625c-8.621093 0-15.613281 6.988282-15.613281 15.609376v89.515624c0 8.621094 6.992188 15.613282 15.613281 15.613282h37.90625c4.136719 13.902344 9.699219 27.320312 16.632813 40.101562l-26.824219 26.816406c-2.929687 2.929688-4.574219 6.898438-4.574219 11.042969 0 4.140625 1.644532 8.109375 4.570313 11.039063l63.304687 63.304687c2.929688 2.929688 6.902344 4.574219 11.042969 4.574219s8.109375-1.644531 11.039063-4.574219l26.816406-26.824219c12.78125 6.929688 26.203125 12.492188 40.101562 16.628907v37.90625c0 8.621093 6.992188 15.613281 15.613282 15.613281h89.515624c8.621094 0 15.613282-6.992188 15.613282-15.613281v-37.90625c13.898437-4.136719 27.320312-9.699219 40.101562-16.632813l26.816406 26.824219c2.929688 2.929687 6.898438 4.574219 11.039063 4.574219h.003906c4.140625 0 8.109375-1.644532 11.039063-4.570313l63.304687-63.308593c2.925781-2.925782 4.570313-6.898438 4.570313-11.039063s-1.644532-8.113281-4.574219-11.039063l-26.824219-26.816406c6.929688-12.785156 12.496094-26.203125 16.632813-40.105468h37.90625c8.621093 0 15.613281-6.988282 15.613281-15.609376v-89.515624c0-8.621094-6.988281-15.613282-15.613281-15.613282zm-240.386719 193.234375c-73.261719 0-132.863281-59.601562-132.863281-132.863281s59.601562-132.863281 132.863281-132.863281 132.863281 59.601562 132.863281 132.863281-59.601562 132.863281-132.863281 132.863281zm0 0"/></svg>