<svg height="512pt" viewBox="0 0 512 512" width="512pt" xmlns="http://www.w3.org/2000/svg"><path d="m120 257v150c0 8.398438-6.597656 15-15 15s-15-6.601562-15-15v-150c0-8.402344 6.597656-15 15-15s15 6.597656 15 15zm0 0" fill="#a8ebfa"/><path d="m120 257v150c0 8.398438-6.597656 15-15 15v-180c8.402344 0 15 6.597656 15 15zm0 0" fill="#76e2f8"/><path d="m120 137v60c0 8.398438-6.597656 15-15 15s-15-6.601562-15-15v-60c0-8.402344 6.597656-15 15-15s15 6.597656 15 15zm0 0" fill="#a8ebfa"/><path d="m120 137v60c0 8.398438-6.597656 15-15 15v-90c8.402344 0 15 6.597656 15 15zm0 0" fill="#76e2f8"/><path d="m511 497c0 8.398438-6.597656 15-15 15h-481c-8.402344 0-15-6.601562-15-15v-482c0-8.402344 6.597656-15 15-15s15 6.597656 15 15v467h466c8.402344 0 15 6.597656 15 15zm0 0" fill="#54469d"/><path d="m105 182c-24.902344 0-45 20.097656-45 45 0 24.898438 20.097656 45 45 45s45-20.101562 45-45c0-24.902344-20.097656-45-45-45zm0 0" fill="#25d9f8"/><path d="m150 227c0 24.898438-20.097656 45-45 45v-90c24.902344 0 45 20.097656 45 45zm0 0" fill="#00c0f1"/><path d="m240 317v120c0 8.398438-6.597656 15-15 15s-15-6.601562-15-15v-120c0-8.402344 6.597656-15 15-15s15 6.597656 15 15zm0 0" fill="#a8ebfa"/><path d="m240 317v120c0 8.398438-6.597656 15-15 15v-150c8.402344 0 15 6.597656 15 15zm0 0" fill="#76e2f8"/><path d="m240 227v60c0 8.398438-6.597656 15-15 15s-15-6.601562-15-15v-60c0-8.402344 6.597656-15 15-15s15 6.597656 15 15zm0 0" fill="#a8ebfa"/><path d="m240 227v60c0 8.398438-6.597656 15-15 15v-90c8.402344 0 15 6.597656 15 15zm0 0" fill="#76e2f8"/><path d="m225 272c-24.902344 0-45 20.097656-45 45 0 24.898438 20.097656 45 45 45s45-20.101562 45-45c0-24.902344-20.097656-45-45-45zm0 0" fill="#25d9f8"/><path d="m270 317c0 24.898438-20.097656 45-45 45v-90c24.902344 0 45 20.097656 45 45zm0 0" fill="#00c0f1"/><path d="m481 347v90c0 8.398438-6.597656 15-15 15s-15-6.601562-15-15v-90c0-8.402344 6.597656-15 15-15s15 6.597656 15 15zm0 0" fill="#a8ebfa"/><path d="m481 347v90c0 8.398438-6.597656 15-15 15v-120c8.402344 0 15 6.597656 15 15zm0 0" fill="#76e2f8"/><path d="m481 257v60c0 8.398438-6.597656 15-15 15s-15-6.601562-15-15v-60c0-8.402344 6.597656-15 15-15s15 6.597656 15 15zm0 0" fill="#a8ebfa"/><path d="m481 257v60c0 8.398438-6.597656 15-15 15v-90c8.402344 0 15 6.597656 15 15zm0 0" fill="#76e2f8"/><path d="m466 302c-24.902344 0-45 20.097656-45 45 0 24.898438 20.097656 45 45 45s45-20.101562 45-45c0-24.902344-20.097656-45-45-45zm0 0" fill="#25d9f8"/><path d="m511 347c0 24.898438-20.097656 45-45 45v-90c24.902344 0 45 20.097656 45 45zm0 0" fill="#00c0f1"/><path d="m360 257v120c0 8.398438-6.597656 15-15 15s-15-6.601562-15-15v-120c0-8.402344 6.597656-15 15-15s15 6.597656 15 15zm0 0" fill="#a8ebfa"/><path d="m360 257v120c0 8.398438-6.597656 15-15 15v-150c8.402344 0 15 6.597656 15 15zm0 0" fill="#76e2f8"/><path d="m360 137v90c0 8.398438-6.597656 15-15 15s-15-6.601562-15-15v-90c0-8.402344 6.597656-15 15-15s15 6.597656 15 15zm0 0" fill="#a8ebfa"/><path d="m360 137v90c0 8.398438-6.597656 15-15 15v-120c8.402344 0 15 6.597656 15 15zm0 0" fill="#76e2f8"/><path d="m345 212c-24.902344 0-45 20.097656-45 45 0 24.898438 20.097656 45 45 45s45-20.101562 45-45c0-24.902344-20.097656-45-45-45zm0 0" fill="#25d9f8"/><path d="m390 257c0 24.898438-20.097656 45-45 45v-90c24.902344 0 45 20.097656 45 45zm0 0" fill="#00c0f1"/><path d="m511 497c0 8.398438-6.597656 15-15 15h-211v-30h211c8.402344 0 15 6.597656 15 15zm0 0" fill="#463b85"/></svg>