<svg height="512pt" viewBox="0 0 512 512" width="512pt" xmlns="http://www.w3.org/2000/svg"><path d="m145.109375 321.570312c-2.460937 0-4.964844-.601562-7.265625-1.890624-7.25-4.015626-9.855469-13.152344-5.828125-20.390626l58.695313-106.660156c4.015624-7.222656 13.152343-9.886718 20.390624-5.828125 7.25 4.011719 9.859376 13.152344 5.832032 20.390625l-58.699219 106.660156c-2.738281 4.933594-7.847656 7.71875-13.125 7.71875zm0 0" fill="#a8ebfa"/><path d="m366.890625 321.570312c-5.273437 0-10.386719-2.785156-13.125-7.71875l-58.699219-106.660156c-4.027344-7.238281-1.417968-16.378906 5.832032-20.390625 7.25-4.058593 16.375-1.394531 20.390624 5.828125l58.695313 106.660156c4.027344 7.234376 1.421875 16.375-5.828125 20.390626-2.300781 1.289062-4.804688 1.890624-7.265625 1.890624zm0 0" fill="#76e2f8"/><path d="m331 377c0 8.398438-6.597656 15-15 15h-120c-8.402344 0-15-6.601562-15-15 0-8.402344 6.597656-15 15-15h120c8.402344 0 15 6.597656 15 15zm0 0" fill="#a8ebfa"/><path d="m331 377c0 8.398438-6.597656 15-15 15h-60v-30h60c8.402344 0 15 6.597656 15 15zm0 0" fill="#76e2f8"/><path d="m509.898438 333.199219-51.398438-1.199219-52.5 60-30 58.5 30 61.5c2.699219 0 5.097656-.601562 7.5-2.101562l91.300781-53.398438c.601563-.300781 1.199219-.898438 1.800781-1.199219 3.296876-3 5.398438-7.5 5.398438-11.699219v-102.902343c0-2.699219-.601562-5.398438-2.101562-7.5zm0 0" fill="#5a69e6"/><path d="m353.5 332-50.398438 1.199219c-1.5 2.402343-2.101562 4.800781-2.101562 7.5v102.898437c0 4.203125 2.101562 8.703125 5.398438 11.703125.601562.296875 92.101562 54.597657 92.101562 54.597657 2.402344 1.5 4.800781 2.101562 7.5 2.101562v-120zm0 0" fill="#7984eb"/><path d="m509.898438 333.199219-103.898438 58.800781-102.898438-58.800781c.296876-.296875.597657-.898438.898438-1.199219 1.199219-1.800781 2.699219-3 4.5-4.199219l90-53.699219c2.402344-1.5 5.097656-2.101562 7.5-2.101562s5.097656.601562 7.5 2.101562l91 53.699219c1.800781 1.199219 3.300781 2.699219 4.5 4.199219.300781.300781.597656.902344.898438 1.199219zm0 0" fill="#979fef"/><path d="m208.898438 333.199219-50.398438-1.199219-52.5 60-30 58.5 30 61.5c2.699219 0 5.097656-.601562 7.5-2.101562l90.300781-53.398438c.601563-.300781 1.199219-.898438 1.800781-1.199219 3.296876-3 5.398438-7.5 5.398438-11.699219v-102.902343c0-2.699219-.601562-5.398438-2.101562-7.5zm0 0" fill="#5a69e6"/><path d="m53.5 332-51.398438 1.199219c-1.5 2.402343-2.101562 4.800781-2.101562 7.5v102.898437c0 4.203125 2.101562 8.703125 5.398438 11.703125.601562.296875 93.101562 54.597657 93.101562 54.597657 2.402344 1.5 4.800781 2.101562 7.5 2.101562v-120zm0 0" fill="#7984eb"/><path d="m208.898438 333.199219-102.898438 58.800781-103.898438-58.800781c.296876-.296875.597657-.898438.898438-1.199219 1.199219-1.800781 2.699219-3 4.5-4.199219l91-53.699219c2.402344-1.5 5.097656-2.101562 7.5-2.101562s5.097656.601562 7.5 2.101562l90 53.699219c1.800781 1.199219 3.300781 2.699219 4.5 4.199219.300781.300781.597656.902344.898438 1.199219zm0 0" fill="#b5baf3"/><path d="m358.898438 62.199219-50.398438-1.199219-52.5 60-30 58.5 30 61.5c2.699219 0 5.097656-.601562 7.5-2.101562l90.300781-53.398438c.601563-.300781 1.199219-.898438 1.800781-1.199219 3.296876-3 5.398438-7.5 5.398438-11.699219v-102.902343c0-2.699219-.601562-5.398438-2.101562-7.5zm0 0" fill="#5a69e6"/><path d="m203.5 61-50.398438 1.199219c-1.5 2.402343-2.101562 4.800781-2.101562 7.5v102.898437c0 4.203125 2.101562 8.703125 5.398438 11.703125.601562.296875 92.101562 54.597657 92.101562 54.597657 2.402344 1.5 4.800781 2.101562 7.5 2.101562v-120zm0 0" fill="#7984eb"/><path d="m358.898438 62.199219-102.898438 58.800781-102.898438-58.800781c.296876-.296875.597657-.898438.898438-1.199219 1.199219-1.800781 2.699219-3 4.5-4.199219l90-54.699219c2.402344-1.5 5.097656-2.101562 7.5-2.101562s5.097656.601562 7.5 2.101562l90 54.699219c1.800781 1.199219 3.300781 2.699219 4.5 4.199219.300781.300781.597656.902344.898438 1.199219zm0 0" fill="#b5baf3"/><path d="m358.898438 62.199219-102.898438 58.800781v-121c2.402344 0 5.097656.601562 7.5 2.101562l90 54.699219c1.800781 1.199219 3.300781 2.699219 4.5 4.199219.300781.300781.597656.902344.898438 1.199219zm0 0" fill="#979fef"/></svg>