<svg height="512pt" viewBox="-91 0 512 512" width="512pt" xmlns="http://www.w3.org/2000/svg"><path d="m330 233.699219v194.601562c0 5.398438-3 10.199219-7.5 12.898438l-150.300781 69c-2.097657 1.199219-4.796875 1.800781-7.199219 1.800781l-30-80.15625 30-131.84375 67.5-67.484375 95.398438-6.316406c1.5 2.402343 2.101562 4.800781 2.101562 7.5zm0 0" fill="#5a69e6"/><path d="m165 300v212c-2.402344 0-5.097656-.601562-7.199219-1.800781l-150.300781-69c-4.5-2.699219-7.5-7.5-7.5-12.898438v-194.601562c0-2.699219.601562-5.097657 2.101562-7.5l98.019532 7.773437zm0 0" fill="#7984eb"/><path d="m327.898438 226.199219-162.898438 73.800781-162.898438-73.800781c1.5-2.101563 3.296876-4.199219 5.699219-5.398438 0 0 150.601563-69.300781 150.898438-69.300781 2.101562-.898438 4.199219-1.5 6.300781-1.5s4.199219.601562 6.300781 1.5c.296875 0 150.898438 69.300781 150.898438 69.300781 2.402343 1.199219 4.199219 3.296875 5.699219 5.398438zm0 0" fill="#b5baf3"/><path d="m327.898438 226.199219-162.898438 73.800781v-150c2.101562 0 4.199219.601562 6.300781 1.5.296875 0 150.898438 69.300781 150.898438 69.300781 2.402343 1.199219 4.199219 3.296875 5.699219 5.398438zm0 0" fill="#979fef"/><path d="m165 0c-57.898438 0-105 47.101562-105 105s47.101562 105 105 105 105-47.101562 105-105-47.101562-105-105-105zm0 0" fill="#fdbf00"/><path d="m270 105c0 57.898438-47.101562 105-105 105v-210c57.898438 0 105 47.101562 105 105zm0 0" fill="#ff9f00"/><path d="m165 60c-24.902344 0-45 20.097656-45 45 0 24.898438 20.097656 45 45 45s45-20.101562 45-45c0-24.902344-20.097656-45-45-45zm0 0" fill="#ffd400"/><path d="m210 105c0 24.898438-20.097656 45-45 45v-90c24.902344 0 45 20.097656 45 45zm0 0" fill="#fdbf00"/></svg>