<svg height="512pt" viewBox="0 0 512.00003 512" width="512pt" xmlns="http://www.w3.org/2000/svg"><path d="m501.105469 385.027344-117.980469 98.082031c-9.898438 6.296875-27.59375 28.792969-62.386719 28.792969h-110.679687c-11.394532 0-23.09375-2.699219-33.59375-7.796875l-116.476563-52.191407-29.992187-89.980468 29.992187-89.984375h87.683594c14.996094 0 29.394531 4.496093 41.691406 12.597656l71.085938 47.390625h55.488281 15c16.496094 0 29.992188 13.496094 29.992188 29.996094 0 16.496094-13.496094 29.992187-29.992188 29.992187 0 0-5.699219 0-15 0h-119.976562c-8.398438 0-14.996094 6.597657-14.996094 14.996094s6.597656 15 14.996094 15h161.371093c6 0 6.597657-1.800781 9.597657-3.300781l97.878906-81.285156c12.300781-8.699219 29.996094-6.898438 40.195312 5.398437 11.097656 14.097656 8.398438 32.09375-3.898437 42.292969zm0 0" fill="#ffcebf"/><path d="m330.9375 391.925781s-5.699219 0-14.996094 0v-59.988281h14.996094c16.496094 0 29.992188 13.496094 29.992188 29.996094 0 16.496094-13.496094 29.992187-29.992188 29.992187zm0 0" fill="#ffbfab"/><path d="m501.105469 385.027344-117.980469 98.082031c-9.898438 6.296875-27.59375 28.792969-62.386719 28.792969h-4.796875v-89.980469h41.390625c6 0 6.597657-1.800781 9.597657-3.300781l97.878906-81.285156c12.300781-8.699219 29.996094-6.898438 40.195312 5.398437 11.097656 14.097656 8.398438 32.09375-3.898437 42.292969zm0 0" fill="#ffbfab"/><path d="m44.992188 481.910156h-29.996094c-8.28125 0-14.996094-6.714844-14.996094-15v-179.964844c0-8.28125 6.714844-14.996093 14.996094-14.996093h44.992187v194.960937c0 8.285156-6.714843 15-14.996093 15zm0 0" fill="#463b85"/><path d="m450.914062 85.683594v132.578125c0 5.398437-3 10.195312-7.5 12.894531l-120.277343 68.988281c-2.097657 1.199219-4.796875 1.800781-7.195313 1.800781l-29.996094-80.140624 29.996094-69.832032 67.484375-67.46875 65.386719-6.316406c1.5 2.398438 2.101562 4.796875 2.101562 7.496094zm0 0" fill="#5a69e6"/><path d="m315.941406 151.972656v149.96875c-2.402344 0-5.101562-.597656-7.199218-1.796875l-120.277344-68.988281c-4.5-2.699219-7.5-7.5-7.5-12.898438v-132.574218c0-2.699219.601562-5.097656 2.101562-7.5l68.007813 7.773437zm0 0" fill="#7984eb"/><path d="m448.8125 78.183594-132.871094 73.789062-132.875-73.789062c1.5-2.097656 3.296875-4.195313 5.699219-5.398438 0 0 120.574219-71.285156 120.875-71.285156 2.097656-.898438 4.199219-1.5 6.300781-1.5 2.097656 0 4.199219.601562 6.296875 1.5.300781 0 120.875 71.285156 120.875 71.285156 2.402344 1.203125 4.199219 3.300782 5.699219 5.398438zm0 0" fill="#b5baf3"/><path d="m448.8125 78.183594-132.871094 73.789062v-151.972656c2.097656 0 4.199219.601562 6.296875 1.5.300781 0 120.875 71.285156 120.875 71.285156 2.402344 1.203125 4.199219 3.300782 5.699219 5.398438zm0 0" fill="#979fef"/></svg>