
<svg enable-background="new 0 0 512 512" height="512" viewBox="0 0 512 512" width="512" xmlns="http://www.w3.org/2000/svg"><g><path d="m151 377c0-24.813-20.187-45-45-45s-45 20.187-45 45 20.187 45 45 45 45-20.187 45-45zm-45 15c-8.271 0-15-6.729-15-15s6.729-15 15-15 15 6.729 15 15-6.729 15-15 15z"/><path d="m451 377c0-24.813-20.187-45-45-45s-45 20.187-45 45 20.187 45 45 45 45-20.187 45-45zm-45 15c-8.271 0-15-6.729-15-15s6.729-15 15-15 15 6.729 15 15-6.729 15-15 15z"/><path d="m406 422c-18.507 0-35.457 6.752-48.552 17.904-11.978-44.806-52.918-77.904-101.448-77.904s-89.47 33.098-101.448 77.904c-13.095-11.152-30.045-17.904-48.552-17.904-41.355 0-75 33.645-75 75v15h450v-15c0-41.355-33.645-75-75-75zm-342.43 60c6.191-17.461 22.874-30 42.43-30s36.239 12.539 42.43 30zm117.43 0v-15c0-41.355 33.645-75 75-75s75 33.645 75 75v15zm182.57 0c6.191-17.461 22.874-30 42.43-30s36.239 12.539 42.43 30z"/><path d="m331 287c0-41.355-33.645-75-75-75s-75 33.645-75 75 33.645 75 75 75 75-33.645 75-75zm-75 45c-24.813 0-45-20.187-45-45s20.187-45 45-45 45 20.187 45 45-20.187 45-45 45z"/><path d="m352.213 92h-51.213v-92h-90v92h-51.213l96.213 96.213zm-111.213 30v-92h30v92h8.787l-23.787 23.787-23.787-23.787z"/><path d="m327.459 167h97.082v30h-97.082z" transform="matrix(.894 -.447 .447 .894 -41.698 187.368)"/><path d="m361 242h90v30h-90z"/><path d="m121 133.459h30v97.082h-30z" transform="matrix(.447 -.894 .894 .447 -87.607 222.249)"/><path d="m61 242h90v30h-90z"/></g></svg>