<svg id="Capa_1" enable-background="new 0 0 512 512" height="512" viewBox="0 0 512 512" width="512" xmlns="http://www.w3.org/2000/svg"><g><g id="Candidates"><g><path d="m361 512h-210v-45c0-57.891 47.109-105 105-105s105 47.109 105 105z"/></g><g><path d="m256 362c-41.353 0-75-33.647-75-75s33.647-75 75-75 75 33.647 75 75-33.647 75-75 75z"/></g><g><path d="m256 188.211-96.211-96.211h51.211v-92h90v92h51.211z"/></g><g><path d="m327.457 166.998h97.086v30.003h-97.086z" transform="matrix(.894 -.447 .447 .894 -41.698 187.367)"/></g><g><path d="m361 242h90v30h-90z"/></g><g><path d="m120.998 133.457h30.003v97.086h-30.003z" transform="matrix(.447 -.894 .894 .447 -87.607 222.249)"/></g><g><path d="m61 242h90v30h-90z"/></g></g><path d="m121 467c0-14.489 2.891-28.189 7.136-41.283-7.043-2.195-14.38-3.717-22.136-3.717-41.353 0-75 33.647-75 75v15h90z"/><path d="m406 422c-7.756 0-15.093 1.522-22.136 3.717 4.245 13.094 7.136 26.794 7.136 41.283v45h90v-15c0-41.353-33.647-75-75-75z"/><path d="m150.286 384.059c.368-2.314.714-4.642.714-7.059 0-24.814-20.186-45-45-45s-45 20.186-45 45 20.186 45 45 45c9.803 0 18.812-3.237 26.212-8.578 4.639-10.677 10.966-20.325 18.074-29.363z"/><path d="m406 332c-24.814 0-45 20.186-45 45 0 2.417.346 4.744.714 7.059 7.108 9.038 13.434 18.686 18.074 29.363 7.4 5.341 16.409 8.578 26.212 8.578 24.814 0 45-20.186 45-45s-20.186-45-45-45z"/></g></svg>