<?xml version="1.0" encoding="utf-8"?>
<!-- Generator: Adobe Illustrator 25.1.0, SVG Export Plug-In . SVG Version: 6.00 Build 0)  -->
<svg version="1.1" id="Layer_1" xmlns="http://www.w3.org/2000/svg" xmlns:xlink="http://www.w3.org/1999/xlink" x="0px" y="0px"
	 viewBox="0 0 512 512" style="enable-background:new 0 0 512 512;" xml:space="preserve">
<path d="M254.9,384H11.1C5,384,0,393.6,0,405.3v85.3C0,502.4,5,512,11.1,512h243.8c6.1,0,11.1-9.6,11.1-21.3v-85.3
	C266,393.6,261,384,254.9,384z"/>
<path d="M342,21.3v469.3c0,11.8,12.7,21.3,28.3,21.3h113.3c15.6,0,28.3-9.6,28.3-21.3V21.3C512,9.6,499.3,0,483.7,0H370.3
	C354.7,0,342,9.6,342,21.3z"/>
<path d="M254.9,0H11.1C5,0,0,9.6,0,21.3v85.3C0,118.4,5,128,11.1,128h243.8c6.1,0,11.1-9.6,11.1-21.3V21.3C266,9.6,261,0,254.9,0z"
	/>
<path d="M254.9,192H11.1C5,192,0,201.6,0,213.3v85.3C0,310.4,5,320,11.1,320h243.8c6.1,0,11.1-9.6,11.1-21.3v-85.3
	C266,201.6,261,192,254.9,192z"/>
</svg>
