<svg clip-rule="evenodd" fill-rule="evenodd" height="512" stroke-linejoin="round" stroke-miterlimit="2" viewBox="0 0 24 24" width="512" xmlns="http://www.w3.org/2000/svg"><g transform="translate(-32.255)"><path d="m34.256 3v13.5c0 3.038 2.462 5.5 5.5 5.5h13.5c.551 0 1-.448 1-1s-.449-1-1-1h-13.5c-1.933 0-3.5-1.567-3.5-3.5v-13.5c0-.552-.449-1-1-1-.552 0-1 .448-1 1zm4 7v7c0 .552.448 1 1 1 .551 0 1-.448 1-1v-7c0-.552-.449-1-1-1-.552 0-1 .448-1 1zm8-2v9c0 .552.448 1 1 1 .551 0 1-.448 1-1v-9c0-.552-.449-1-1-1-.552 0-1 .448-1 1zm-4-3v12c0 .552.448 1 1 1 .551 0 1-.448 1-1v-12c0-.552-.449-1-1-1-.552 0-1 .448-1 1zm8-2v14c0 .552.448 1 1 1 .551 0 1-.448 1-1v-14c0-.552-.449-1-1-1-.552 0-1 .448-1 1z"/></g></svg>