<svg id="Layer_6" height="512" viewBox="0 0 32 32" width="512" xmlns="http://www.w3.org/2000/svg" data-name="Layer 6"><path d="m20.11 13.1a6.56 6.56 0 0 0 6.55-6.55v-2.74a1.07 1.07 0 0 0 -1.06-1.07h-2.74a6 6 0 0 0 -2.73.6 8.12 8.12 0 0 0 -2.24 1.66 7.86 7.86 0 0 0 -2.62-3.44 7.92 7.92 0 0 0 -4.75-1.56h-4.12a1.07 1.07 0 0 0 -1.07 1.07v4.11a7.67 7.67 0 0 0 .37 2.37 7.89 7.89 0 0 0 7.55 5.53h3v2a4.26 4.26 0 0 0 -2.64 2 4.21 4.21 0 0 0 -2.3 1h-2.25a2.66 2.66 0 0 0 -.53 5.27v5.45a3.2 3.2 0 0 0 3.2 3.2h8.53a3.2 3.2 0 0 0 3.2-3.2v-3.19a1.07 1.07 0 0 0 -2.13 0v3.19a1.07 1.07 0 0 1 -1.07 1.07h-8.53a1.07 1.07 0 0 1 -1.07-1.07v-5.32h12.27a2.66 2.66 0 1 0 0-5.33h-1.44a4.26 4.26 0 0 0 -3.05-3.06v-2zm1-7.85a3.8 3.8 0 0 1 1.78-.37h1.68v1.67a4.42 4.42 0 0 1 -4.46 4.45h-.75l2.15-2a1.07 1.07 0 0 0 -1.44-1.57l-1.6 1.47a4.41 4.41 0 0 1 1-2.42 6 6 0 0 1 1.61-1.23zm-13.37 1.67a5.54 5.54 0 0 1 -.27-1.73v-3.06h3.05a5.69 5.69 0 0 1 3.48 1.16 5.73 5.73 0 0 1 2.32 4.63v1.54l-2.2-2.2-3.42-3.41a1.07 1.07 0 1 0 -1.51 1.51l1.58 1.58h-.63a1.07 1.07 0 1 0 0 2.13h2.76l1.9 1.93h-1.54a5.76 5.76 0 0 1 -5.52-4.08z"/></svg>