<svg height="512pt" viewBox="-91 0 512 512.00103" width="512pt" xmlns="http://www.w3.org/2000/svg"><path d="m221.867188 192.953125v-41.152344h15.886718c13.664063 0 25.648438-7.734375 31.28125-20.183593 5.628906-12.449219 3.523438-26.554688-5.5-36.816407l-73.097656-83.140625c-6.519531-7.410156-15.914062-11.660156-25.785156-11.660156-9.867188 0-19.265625 4.25-25.78125 11.660156l-73.105469 83.140625c-9.019531 10.261719-11.128906 24.367188-5.496094 36.816407 5.628907 12.449218 17.613281 20.183593 31.277344 20.183593h15.886719v41.15625c-62.664063 23.296875-107.433594 83.710938-107.433594 154.390625 0 90.789063 73.863281 164.652344 164.652344 164.652344 90.789062 0 164.652344-73.863281 164.652344-164.652344 0-70.683594-44.769532-131.097656-107.4375-154.394531zm-191.042969 154.394531c0-73.792968 60.035156-133.828125 133.828125-133.828125 73.792968 0 133.832031 60.035157 133.832031 133.828125 0 73.792969-60.035156 133.828125-133.832031 133.828125-73.792969 0-133.828125-60.035156-133.828125-133.828125zm92.023437-226.371094h-31.300781c-1.5 0-2.574219-.695312-3.191406-2.0625-.621094-1.367187-.429688-2.632812.558593-3.757812l73.109376-83.140625c.863281-.984375 1.90625-1.191406 2.632812-1.191406.722656 0 1.765625.207031 2.632812 1.191406l73.101563 83.140625c.992187 1.125 1.179687 2.390625.558594 3.757812-.617188 1.367188-1.691407 2.0625-3.191407 2.0625h-31.300781c-8.511719 0-15.414062 6.898438-15.414062 15.410157v48.429687c-8.59375-1.390625-17.40625-2.121094-26.386719-2.121094-8.984375 0-17.796875.734376-26.394531 2.125v-48.433593c0-8.511719-6.902344-15.410157-15.414063-15.410157zm0 0"/><path d="m164.652344 324.566406c-6.148438 0-11.15625-6.125-11.15625-13.652344 0-7.527343 5.007812-13.652343 11.15625-13.652343h26.570312c8.511719 0 15.414063-6.902344 15.414063-15.414063 0-8.511718-6.902344-15.410156-15.414063-15.410156h-11.15625v-9.597656c0-8.511719-6.902344-15.414063-15.414062-15.414063-8.511719 0-15.410156 6.902344-15.410156 15.414063v12.714844c-15.542969 6.527343-26.570313 22.597656-26.570313 41.359374 0 24.523438 18.832031 44.476563 41.980469 44.476563 6.152344 0 11.15625 6.125 11.15625 13.65625 0 7.527344-5.003906 13.652344-11.15625 13.652344h-26.566406c-8.511719 0-15.414063 6.898437-15.414063 15.410156s6.902344 15.414063 15.414063 15.414063h11.15625v9.597656c0 8.511718 6.898437 15.410156 15.410156 15.410156 8.511718 0 15.414062-6.898438 15.414062-15.410156v-12.71875c15.542969-6.523438 26.570313-22.597656 26.570313-41.355469 0-24.527344-18.835938-44.480469-41.984375-44.480469zm0 0"/></svg>