<?xml version="1.0"?>
<svg xmlns="http://www.w3.org/2000/svg" id="Layer_6" data-name="Layer 6" viewBox="0 0 32 32" width="512" height="512"><path d="M26.67,1.07H5.33A5.34,5.34,0,0,0,0,6.4v16a5.34,5.34,0,0,0,5.33,5.33H9.6a1.07,1.07,0,1,0,0-2.13H5.33a3.2,3.2,0,0,1-3.2-3.2V6.4a3.2,3.2,0,0,1,3.2-3.2H26.67a3.2,3.2,0,0,1,3.2,3.2v16a3.2,3.2,0,0,1-3.2,3.2H12.8A1.07,1.07,0,0,0,12,27.42l3.2,3.2a1.07,1.07,0,0,0,1.51,0l2.89-2.89h7A5.34,5.34,0,0,0,32,22.4V6.4A5.34,5.34,0,0,0,26.67,1.07Z"/><path d="M21.87,12.69a1.07,1.07,0,0,0,1.07-1.07v-.85a1.07,1.07,0,0,0-1.07-1.07H20.69V8.54a1.07,1.07,0,0,0-1.07-1.07h-.85a1.07,1.07,0,0,0-1.07,1.07V9.71H14.29V8.54a1.07,1.07,0,0,0-1.07-1.07h-.85a1.07,1.07,0,0,0-1.07,1.07V9.71H10.13a1.07,1.07,0,0,0-1.07,1.07v.85a1.07,1.07,0,0,0,1.07,1.07h1.17v3.42H10.13a1.07,1.07,0,0,0-1.07,1.07V18a1.07,1.07,0,0,0,1.07,1.07h1.17v1.17a1.07,1.07,0,0,0,1.07,1.07h.85a1.07,1.07,0,0,0,1.07-1.07V19.1h3.42v1.17a1.07,1.07,0,0,0,1.07,1.07h.85a1.07,1.07,0,0,0,1.07-1.07V19.1h1.17A1.07,1.07,0,0,0,22.93,18v-.85a1.07,1.07,0,0,0-1.07-1.07H20.69V12.69Zm-4.16,0v3.42H14.29V12.69Z"/></svg>
