<svg id="Layer_2" height="512" viewBox="0 0 24 24" width="512" xmlns="http://www.w3.org/2000/svg" data-name="Layer 2"><path d="m17.221 22.588a2.563 2.563 0 0 1 -1.28-.346l-3.941-2.271-3.941 2.27a2.556 2.556 0 0 1 -3.777-2.741l.942-4.45-3.378-3.05a2.556 2.556 0 0 1 1.442-4.439l4.524-.479 1.854-4.155a2.556 2.556 0 0 1 4.668 0l1.854 4.155 4.524.479a2.556 2.556 0 0 1 1.442 4.439l-3.378 3.047.942 4.451a2.565 2.565 0 0 1 -2.5 3.09zm-5.221-4.772a1 1 0 0 1 .5.134l4.44 2.558a.555.555 0 0 0 .822-.6l-1.062-5.008a1 1 0 0 1 .309-.949l3.805-3.433a.555.555 0 0 0 -.314-.968l-5.1-.54a1 1 0 0 1 -.807-.587l-2.089-4.68a.556.556 0 0 0 -1.016 0l-2.088 4.68a1 1 0 0 1 -.8.587l-5.1.54a.555.555 0 0 0 -.313.965l3.805 3.433a1 1 0 0 1 .308.952l-1.061 5.012a.555.555 0 0 0 .822.6l4.439-2.562a1 1 0 0 1 .5-.134z"/></svg>