<?xml version="1.0" encoding="utf-8"?>
<!-- Generator: Adobe Illustrator 25.1.0, SVG Export Plug-In . SVG Version: 6.00 Build 0)  -->
<svg version="1.1" id="Layer_1" xmlns="http://www.w3.org/2000/svg" xmlns:xlink="http://www.w3.org/1999/xlink" x="0px" y="0px"
	 viewBox="0 0 512 512" style="enable-background:new 0 0 512 512;" xml:space="preserve">
<path d="M490.7,384H21.3C9.6,384,0,393.6,0,405.3v85.3C0,502.4,9.6,512,21.3,512h469.3c11.8,0,21.3-9.6,21.3-21.3v-85.3
	C512,393.6,502.4,384,490.7,384z"/>
<path d="M490.7,192H21.3C9.6,192,0,201.6,0,213.3v85.3C0,310.4,9.6,320,21.3,320h469.3c11.8,0,21.3-9.6,21.3-21.3v-85.3
	C512,201.6,502.4,192,490.7,192z"/>
<path d="M490.7,0H21.3C9.6,0,0,9.6,0,21.3v85.3C0,118.4,9.6,128,21.3,128h469.3c11.8,0,21.3-9.6,21.3-21.3V21.3
	C512,9.6,502.4,0,490.7,0z"/>
</svg>
