<svg id="Layer_1" enable-background="new 0 0 512.258 512.258" height="512" viewBox="0 0 512.258 512.258" width="512" xmlns="http://www.w3.org/2000/svg"><path d="m187.158 512.258c-11.046 0-20-8.954-20-20v-8c0-11.028-8.972-20-20-20h-16.985c-38.866.695-73.928-31.499-76.545-70.283-.001.001-4.005-46.852-4.005-46.852-37.285-1.867-61.476-44.666-43.404-77.542 9.747-18.653 24.282-40.56 44.352-66.834 1.279-136.783 118.308-215.558 249.675-201.034 26.219 3.707 22.279 41.601-4.176 39.779-114.634-12.501-208.088 56.424-205.586 168.174-.002 4.433-1.476 8.742-4.193 12.248-20.449 26.393-35.462 48.664-44.623 66.193-3.044 5.825-.712 10.847.433 12.736 1.168 1.929 4.613 6.414 11.357 6.414 18.758 0 34.107 14.094 35.705 32.784 0 0 4.319 50.527 4.319 50.527 1.641 19.206 17.415 33.689 36.69 33.689h16.985c33.084 0 60 26.916 60 60v8c.001 11.047-8.953 20.001-19.999 20.001zm249-20v-124c0-27.662 9.331-46.302 20.604-66.101 5.466-9.599 2.115-21.811-7.484-27.276-9.596-5.464-21.811-2.114-27.275 7.484-13.077 22.968-25.845 48.519-25.845 85.893v124c.955 26.444 39.003 26.547 40 0zm-51-335.997c0 13.807-11.193 25-25 25-33.126-1.226-33.117-48.779 0-50 13.807 0 25 11.193 25 25zm127 0c0 18.787-9.207 36.387-24.629 47.08-91.409 64.33-165.408 64.278-256.742-.002-32.553-21.751-32.584-72.4.001-94.158 91.408-64.33 165.407-64.279 256.741.002 15.422 10.691 24.629 28.291 24.629 47.078zm-40 0c0-5.76-2.705-10.938-7.422-14.209-78.626-54.919-132.605-54.862-211.156.001-9.813 6.436-9.837 21.977 0 28.416 78.626 54.918 132.605 54.862 211.156-.002 4.717-3.268 7.422-8.447 7.422-14.206z"/></svg>