<svg height="512" viewBox="0 0 54 60" width="512" xmlns="http://www.w3.org/2000/svg"><g id="Page-1" fill="none" fill-rule="evenodd"><g id="031---Walet" fill="rgb(0,0,0)" fill-rule="nonzero"><path id="Shape" d="m0 53c.00440864 3.8641657 3.13583434 6.9955914 7 7h38c3.8641657-.0044086 6.9955914-3.1358343 7-7v-6.184c1.1943509-.4222546 1.9947486-1.5492146 2-2.816v-6c-.0052514-1.2667854-.8056491-2.3937454-2-2.816v-6.184c-.0044086-3.8641657-3.1358343-6.9955914-7-7h-11.262c.1722069-.6527774.2602539-1.3248922.262-2 0-4.418278-3.581722-8-8-8s-8 3.581722-8 8c.0017461.6751078.0897931 1.3472226.262 2h-11.262c-3.86416566.0044086-6.99559136 3.1358343-7 7zm52-9c0 .5522847-.4477153 1-1 1h-8c-2.209139 0-4-1.790861-4-4s1.790861-4 4-4h8c.5522847 0 1 .4477153 1 1zm-32-24c0-3.3137085 2.6862915-6 6-6s6 2.6862915 6 6c.0012685.6816657-.1158027 1.3583779-.346 2h-2.21c.3599241-.6053465.5518554-1.2957468.556-2 0-2.209139-1.790861-4-4-4s-4 1.790861-4 4c.0041446.7042532.1960759 1.3946535.556 2h-2.21c-.2301973-.6416221-.3472685-1.3183343-.346-2zm4 0c0-1.1045695.8954305-2 2-2s2 .8954305 2 2-.8954305 2-2 2-2-.8954305-2-2zm-22 9c.00330612-2.7600532 2.23994685-4.9966939 5-5h38c2.7600532.0033061 4.9966939 2.2399468 5 5v6h-7c-3.3137085 0-6 2.6862915-6 6s2.6862915 6 6 6h7v6c-.0033061 2.7600532-2.2399468 4.9966939-5 5h-38c-2.76005315-.0033061-4.99669388-2.2399468-5-5z"/><path id="Shape" d="m43 38c-1.2133867 0-2.3072956.7309265-2.7716386 1.8519497s-.2076757 2.4113767.6503183 3.2693706c.8579939.857994 2.1483474 1.1146613 3.2693706.6503183s1.8519497-1.5582519 1.8519497-2.7716386c0-1.6568542-1.3431458-3-3-3zm0 4c-.5522847 0-1-.4477153-1-1s.4477153-1 1-1 1 .4477153 1 1-.4477153 1-1 1z"/><path id="Shape" d="m6 28h1c.55228475 0 1-.4477153 1-1s-.44771525-1-1-1h-1c-.55228475 0-1 .4477153-1 1s.44771525 1 1 1z"/><path id="Shape" d="m11 28h1c.5522847 0 1-.4477153 1-1s-.4477153-1-1-1h-1c-.5522847 0-1 .4477153-1 1s.4477153 1 1 1z"/><path id="Shape" d="m16 28h1c.5522847 0 1-.4477153 1-1s-.4477153-1-1-1h-1c-.5522847 0-1 .4477153-1 1s.4477153 1 1 1z"/><path id="Shape" d="m21 28h1c.5522847 0 1-.4477153 1-1s-.4477153-1-1-1h-1c-.5522847 0-1 .4477153-1 1s.4477153 1 1 1z"/><path id="Shape" d="m26 28h1c.5522847 0 1-.4477153 1-1s-.4477153-1-1-1h-1c-.5522847 0-1 .4477153-1 1s.4477153 1 1 1z"/><path id="Shape" d="m31 28h1c.5522847 0 1-.4477153 1-1s-.4477153-1-1-1h-1c-.5522847 0-1 .4477153-1 1s.4477153 1 1 1z"/><path id="Shape" d="m36 28h1c.5522847 0 1-.4477153 1-1s-.4477153-1-1-1h-1c-.5522847 0-1 .4477153-1 1s.4477153 1 1 1z"/><path id="Shape" d="m41 28h1c.5522847 0 1-.4477153 1-1s-.4477153-1-1-1h-1c-.5522847 0-1 .4477153-1 1s.4477153 1 1 1z"/><path id="Shape" d="m46 28h1c.5522847 0 1-.4477153 1-1s-.4477153-1-1-1h-1c-.5522847 0-1 .4477153-1 1s.4477153 1 1 1z"/><path id="Shape" d="m6 56h1c.55228475 0 1-.4477153 1-1s-.44771525-1-1-1h-1c-.55228475 0-1 .4477153-1 1s.44771525 1 1 1z"/><path id="Shape" d="m11 56h1c.5522847 0 1-.4477153 1-1s-.4477153-1-1-1h-1c-.5522847 0-1 .4477153-1 1s.4477153 1 1 1z"/><path id="Shape" d="m16 56h1c.5522847 0 1-.4477153 1-1s-.4477153-1-1-1h-1c-.5522847 0-1 .4477153-1 1s.4477153 1 1 1z"/><path id="Shape" d="m21 56h1c.5522847 0 1-.4477153 1-1s-.4477153-1-1-1h-1c-.5522847 0-1 .4477153-1 1s.4477153 1 1 1z"/><path id="Shape" d="m26 56h1c.5522847 0 1-.4477153 1-1s-.4477153-1-1-1h-1c-.5522847 0-1 .4477153-1 1s.4477153 1 1 1z"/><path id="Shape" d="m31 56h1c.5522847 0 1-.4477153 1-1s-.4477153-1-1-1h-1c-.5522847 0-1 .4477153-1 1s.4477153 1 1 1z"/><path id="Shape" d="m36 56h1c.5522847 0 1-.4477153 1-1s-.4477153-1-1-1h-1c-.5522847 0-1 .4477153-1 1s.4477153 1 1 1z"/><path id="Shape" d="m41 56h1c.5522847 0 1-.4477153 1-1s-.4477153-1-1-1h-1c-.5522847 0-1 .4477153-1 1s.4477153 1 1 1z"/><path id="Shape" d="m46 56h1c.5522847 0 1-.4477153 1-1s-.4477153-1-1-1h-1c-.5522847 0-1 .4477153-1 1s.4477153 1 1 1z"/><path id="Shape" d="m10 16c4.418278 0 8-3.581722 8-8s-3.581722-8-8-8-8 3.581722-8 8c.00495988 4.4162219 3.58377808 7.9950401 8 8zm0-14c3.3137085 0 6 2.6862915 6 6s-2.6862915 6-6 6-6-2.6862915-6-6c.00330738-3.31233757 2.68766243-5.99669262 6-6z"/><path id="Shape" d="m10 12c2.209139 0 4-1.790861 4-4s-1.790861-4-4-4-4 1.790861-4 4 1.790861 4 4 4zm0-6c1.1045695 0 2 .8954305 2 2s-.8954305 2-2 2-2-.8954305-2-2 .8954305-2 2-2z"/><path id="Shape" d="m50 8c0-4.418278-3.581722-8-8-8s-8 3.581722-8 8 3.581722 8 8 8c4.4162219-.0049599 7.9950401-3.5837781 8-8zm-14 0c0-3.3137085 2.6862915-6 6-6s6 2.6862915 6 6-2.6862915 6-6 6c-3.3123376-.0033074-5.9966926-2.6876624-6-6z"/><path id="Shape" d="m46 8c0-2.209139-1.790861-4-4-4s-4 1.790861-4 4 1.790861 4 4 4 4-1.790861 4-4zm-6 0c0-1.1045695.8954305-2 2-2s2 .8954305 2 2-.8954305 2-2 2-2-.8954305-2-2z"/></g></g></svg>