<svg id="Layer_6" height="512" viewBox="0 0 32 32" width="512" xmlns="http://www.w3.org/2000/svg" data-name="Layer 6"><path d="m16 25.07a1.06 1.06 0 0 1 -.75-.31c-.34-.34-8.31-8.4-8.31-15.69a9.07 9.07 0 0 1 18.13 0c0 4.26-2.73 8.78-5 11.82a1.07 1.07 0 1 1 -1.71-1.28c2.09-2.78 4.59-6.87 4.59-10.54a6.93 6.93 0 1 0 -13.87 0c0 6.42 7.61 14.1 7.69 14.18a1.07 1.07 0 0 1 -.77 1.82z"/><path d="m16 25.07a1.06 1.06 0 0 1 -.75-.31c-.34-.34-8.31-8.4-8.31-15.69a9.07 9.07 0 0 1 18.13 0c0 4.26-2.73 8.78-5 11.82a1.07 1.07 0 1 1 -1.71-1.28c2.09-2.78 4.59-6.87 4.59-10.54a6.93 6.93 0 1 0 -13.87 0c0 6.42 7.61 14.1 7.69 14.18a1.07 1.07 0 0 1 -.77 1.82z"/><path d="m16 11.73a3.2 3.2 0 1 1 3.2-3.2 3.2 3.2 0 0 1 -3.2 3.2zm0-4.27a1.07 1.07 0 1 0 1.07 1.07 1.07 1.07 0 0 0 -1.07-1.07z"/><path d="m16 32c-8.66 0-14.94-3.36-14.94-8 0-2.93 1.75-5.08 5.2-6.38a1.07 1.07 0 1 1 .76 2c-3.43 1.29-3.83 3.12-3.83 4.38 0 2.88 4.81 5.87 12.81 5.87s12.8-3 12.8-5.87c0-1.26-.39-3.09-3.81-4.39a1.07 1.07 0 1 1 .76-2c3.44 1.31 5.19 3.45 5.19 6.38-.01 4.65-6.29 8.01-14.94 8.01z"/></svg>