<?xml version="1.0"?>
<svg xmlns="http://www.w3.org/2000/svg" id="Layer_2" data-name="Layer 2" viewBox="0 0 32 32" width="512" height="512"><path d="M8.53,32A5.34,5.34,0,0,1,3.2,26.67V5.33A5.34,5.34,0,0,1,8.53,0H19.2a1.07,1.07,0,1,1,0,2.13H8.53a3.2,3.2,0,0,0-3.2,3.2V26.67a3.2,3.2,0,0,0,3.2,3.2,1.07,1.07,0,1,1,0,2.13Z"/><path d="M23.47,32H12.8a1.07,1.07,0,1,1,0-2.13H23.47a3.2,3.2,0,0,0,3.2-3.2V5.33a3.2,3.2,0,0,0-3.2-3.2,1.07,1.07,0,1,1,0-2.13A5.34,5.34,0,0,1,28.8,5.33V26.67A5.34,5.34,0,0,1,23.47,32Z"/><path d="M21.33,12.79H10.67a3.2,3.2,0,0,1-3.2-3.2V7.47a3.2,3.2,0,0,1,3.2-3.2H21.33a3.2,3.2,0,0,1,3.2,3.2V9.59A3.2,3.2,0,0,1,21.33,12.79ZM10.67,6.4A1.07,1.07,0,0,0,9.6,7.47V9.59a1.07,1.07,0,0,0,1.07,1.07H21.33A1.07,1.07,0,0,0,22.4,9.59V7.47A1.07,1.07,0,0,0,21.33,6.4Z"/><path d="M11.8,20.33h-.07a3.23,3.23,0,1,1,.07,0Zm0-4.33a1.1,1.1,0,0,0-.07,2.2h.07a1.07,1.07,0,0,0,1.07-1.07A1.08,1.08,0,0,0,11.8,16Z"/><path d="M20.33,20.33h-.07a3.23,3.23,0,1,1,.07,0Zm0-4.33a1.1,1.1,0,0,0-.07,2.2h.07a1.07,1.07,0,0,0,1.07-1.07A1.08,1.08,0,0,0,20.33,16Z"/><path d="M20.33,27.8h-.07a3.23,3.23,0,1,1,.07,0Zm0-4.33a1.1,1.1,0,1,0-.07,2.2h.07A1.07,1.07,0,0,0,21.4,24.6,1.08,1.08,0,0,0,20.33,23.47Z"/><path d="M11.8,27.8h-.07a3.23,3.23,0,1,1,.07,0Zm0-4.33a1.1,1.1,0,0,0-.07,2.2h.07a1.07,1.07,0,0,0,1.07-1.07A1.08,1.08,0,0,0,11.8,23.47Z"/></svg>
